<svg xmlns="http://www.w3.org/2000/svg" viewBox="0 0 983.37 119.3"><defs><style>.cls-1{fill:#de182e;}</style></defs><g id="Layer_2" data-name="Layer 2"><g id="Layer_1-2" data-name="Layer 1"><path class="cls-1" d="M113.55,100.17c4-.47,8-1,12-1.39,7.63-.79,10-3.29,10-11,0-5.57,0-11.13,0-16.94H67.23c0,7.22-.28,14.51.12,21.77.18,3.19,2.85,5.12,6.13,5.58,5,.72,10.07,1.33,15.28,2v14.6H.08V100.22c3.82-.46,7.75-1,11.71-1.41,8-.77,10.33-3.27,10.35-11.4q.06-28,0-56c0-8.16-2.36-10.56-10.41-11.29C7.85,19.77,4,19.19,0,18.69V4.12H88.69V18.7c-4.08.5-8.15,1.08-12.24,1.47-7.09.68-9.73,3.4-9.79,10.46,0,5.69,0,11.38,0,17.33h68.67c0-7,.25-13.82-.11-20.65-.18-3.62-2.59-6.08-6.4-6.62-5-.71-10.11-1.33-15.34-2V4.17h88.58V18.69c-3.85.48-7.79,1.08-11.76,1.45-7.58.69-10.21,3.29-10.23,10.78q-.08,28.53,0,57.06c0,7.35,2.59,10,9.87,10.79,4,.42,8,.91,12.43,1.42v14.62H113.55Z"/><path class="cls-1" d="M465.51,114.88H394.44V100.24c3.81-.48,7.54-1,11.29-1.38,8.5-.76,10.78-2.91,11.07-11.56.23-6.77.09-13.55.05-20.32-.08-12.6,0-25.19-.39-37.78-.19-6.14-2.69-8.25-8.89-9l-13.14-1.51V4.1c1.31-.07,2.46-.18,3.62-.18,24.47,0,48.95.07,73.43-.07,5.12,0,8.66,1.86,11.73,5.94,18.26,24.32,36.69,48.52,55.06,72.75.7.92,1.46,1.79,2.62,3.2.12-1.6.27-2.59.27-3.58q0-25.86,0-51.71c0-6.87-2.59-9.59-9.53-10.26-3.31-.32-6.61-.73-9.9-1.13-.81-.1-1.6-.33-2.75-.57V4.13h70.93V18.71c-4,.49-8,1.07-12,1.44-7.58.71-10.06,3.24-10.07,10.87q-.06,39.77,0,79.53v4.33c-19.8,0-39.14.19-58.47-.24-2.59-.06-5.76-2.79-7.56-5.14C485,87.67,468.4,65.65,451.75,43.68l-8.17-10.75c-.18,1.56-.37,2.41-.37,3.27q0,25.86,0,51.71c0,7.34,2.55,10.07,9.8,10.85,3.42.36,6.87.62,10.24,1.25a3.38,3.38,0,0,1,2.16,2.38C465.63,106.41,465.51,110.45,465.51,114.88Z"/><path class="cls-1" d="M599,18.38V3.91h4q54.72,0,109.43,0a102.38,102.38,0,0,1,30.16,4.51c26.9,8.28,40.21,27.09,38.78,55.3-1.14,22.44-13.36,36.88-33.78,44.93C735.83,113.29,723.51,115,711,115c-37,.09-73.91,0-110.86,0-.7,0-1.41-.09-2.39-.16V100.23c3.65-.46,7.46-1,11.29-1.39,8.26-.76,10.6-3.23,10.6-11.49q0-28.53,0-57c0-7.28-1.93-9.39-9.28-10.26-3.42-.41-6.83-.83-10.25-1.26A6.84,6.84,0,0,1,599,18.38Zm64.56,74.94c15.27,0,30.24.8,45.09-.24,12.09-.85,18.63-7.42,20.4-19.31a93,93,0,0,0,.5-25.48C727.37,32,719.41,25.5,703,25.15c-12.23-.26-24.46-.15-36.69-.18a21.71,21.71,0,0,0-2.76.35Z"/><path class="cls-1" d="M298.26,119.3c-18.92-.38-37.55-2.1-55.21-9.34-17.94-7.35-31.1-19.36-34.88-39.18-5.25-27.47,7-49.8,33.18-61.14C256.17,3.21,271.85,1,287.84.27c19.55-.85,38.92.14,57.79,5.87,11.28,3.42,21.47,8.8,29.89,17.29,19.94,20.11,20,61.57-10.12,80.35-12.25,7.64-25.73,11.53-39.84,13.31C316.51,118.24,307.36,118.59,298.26,119.3Zm40.23-59.65-.64,0c0-2.38.13-4.76,0-7.12-1-16.21-9.52-26.68-24.55-30a70.59,70.59,0,0,0-26.55-.68c-16,2.59-25.29,10.74-27.25,25.27a95.51,95.51,0,0,0-.08,24.07c1.72,14.17,10.87,23,24.93,25.5a74.94,74.94,0,0,0,27.61,0c13-2.47,21.77-9.65,24.6-23C337.53,69.1,337.86,64.34,338.49,59.65Z"/><path class="cls-1" d="M887.47,100.22c4.12-.47,8-.86,11.88-1.38a16.85,16.85,0,0,0,4.45-1.09c3.52-1.52,4.58-4.14,2.81-7.49a62.26,62.26,0,0,0-5.21-8.06,4.21,4.21,0,0,0-3-1.3c-21.27-.08-42.55-.06-63.82-.05-.71,0-1.85-.13-2.05.23-2.43,4.25-5.52,8.36-6.77,13-.82,3,3,4.38,6,4.78,4,.55,8,.93,12.15,1.4v14.61h-70.7V100.21c3.92-.46,7.87-1.1,11.85-1.35a12.84,12.84,0,0,0,11-6.65c12.32-20.3,24.83-40.49,37.23-60.75,3.65-6,1.52-9.91-5.51-10.66-5.78-.63-11.54-1.39-17.5-2.11V3.91h4.18c26,0,52.05.2,78.08-.13,6.85-.09,11,2.61,14.55,8.1C923.29,37,940.1,61.8,956,87.18c5.3,8.49,11.84,12.4,21.41,12.37a46.79,46.79,0,0,1,6,.74v14.6h-95.9Zm.4-38.92-22.5-34.41L844.24,61.3Z"/></g></g></svg>