<svg width="128" height="128" viewBox="0 0 128 128" fill="none" xmlns="http://www.w3.org/2000/svg">
<circle cx="64" cy="64" r="64" fill="#171722"/>
<path d="M60.6089 40.9753C61.0228 39.9607 61.4368 38.9461 61.9106 37.7831C62.7602 39.305 63.3823 40.7624 63.9303 42.2484C64.8588 44.7682 65.4762 47.3598 65.6628 50.0471C65.6748 50.2147 65.4906 50.5664 65.9285 50.5305C66.1127 50.8584 65.8853 51.0929 65.7299 51.3226C64.4927 53.1412 63.1383 54.8546 61.3722 56.2067C60.6879 56.7331 60.3936 56.6733 60.1136 55.8358C59.3909 53.675 58.7998 51.4734 58.1537 49.2887C58.0364 48.8963 57.8881 48.5109 57.79 48.1162C57.6393 47.5107 57.3234 47.3767 56.7921 47.6639C56.426 47.4509 56.3638 47.0561 56.2417 46.7067C55.823 45.4982 55.4688 44.2659 54.9591 43.0908C54.3944 41.8082 53.808 40.5351 53.3822 39.1999C53.3822 38.9462 53.454 38.6974 53.7292 38.6711C54.0834 38.6328 54.2127 38.9439 54.349 39.2024C55.3326 41.0618 56.2777 42.9402 57.0674 44.8929C57.1967 45.2135 57.3068 45.5486 57.5293 45.8884C57.8667 45.7353 57.9816 45.4242 58.1419 45.1681C58.8286 44.0794 59.3982 42.9259 59.9748 41.7749C60.1302 41.4659 60.2379 41.1142 60.6089 40.9753Z" fill="#58AA46"/>
<path d="M56.8511 47.6415C57.0354 47.3855 57.2172 47.1294 57.4493 46.804C58.2606 48.2494 58.4998 49.7856 58.9809 51.2358C59.4834 52.7577 59.9237 54.3011 60.352 55.8446C60.529 56.4787 60.663 56.5003 61.1967 56.0743C62.9723 54.6554 64.3506 52.8989 65.6452 51.0635C65.7601 50.9008 65.8343 50.7093 65.9275 50.5322C66.2913 49.8478 66.6526 49.1635 67.1216 48.278C67.4351 50.592 67.5093 52.7002 67.5189 54.8132C67.5285 56.8879 67.246 58.9362 66.9733 60.9871C67.1479 61.1953 67.0212 61.3819 66.8968 61.5279C66.0592 62.521 65.2098 63.5044 64.2214 64.354C64.0228 64.5262 63.7882 64.6435 63.5178 64.6555C62.9435 64.5024 62.8095 63.9951 62.642 63.5332C61.9743 61.6883 61.3354 59.8289 60.7611 57.9528C60.572 57.3378 60.3089 57.0291 59.6484 57.2732C59.1316 57.1033 59.177 56.6104 59.0478 56.2179C58.5334 54.3897 58.0691 52.5472 57.5163 50.7284C57.3631 50.2259 57.2339 49.7138 57.0185 49.2328C56.9612 48.7016 56.5496 48.2087 56.8511 47.6415Z" fill="#0A9747"/>
<path d="M59.2685 56.143C59.3762 56.4995 59.4839 56.8585 59.5915 57.215C60.1898 58.3158 60.2543 59.5673 60.5655 60.7471C60.6923 61.24 60.9651 61.7426 60.7401 62.2834C60.1084 62.7787 59.8452 62.3599 59.6824 61.8262C59.3546 60.7351 59.0506 59.6366 58.7875 58.5312C58.6391 57.8994 58.3066 57.5955 57.6723 57.4926C56.1145 57.2438 54.5806 56.8848 53.1161 56.2746C52.8122 56.1455 52.4006 56.1549 52.2905 55.7266C52.391 55.315 52.0488 55.1021 51.8622 54.8364C50.1128 52.3166 48.9475 49.5599 48.3756 46.4419C49.0217 46.5472 49.4644 46.997 50.0387 47.0234C50.345 46.9181 50.6106 47.0737 50.8786 47.1694C52.2306 47.6456 53.6282 47.8777 55.0568 47.9615C55.5233 47.9878 55.9948 48.0093 56.3083 48.4425C56.4735 48.7058 56.538 49.0048 56.6362 49.2944C57.2177 51.2878 57.847 53.2691 58.3639 55.2816C58.4908 55.7769 58.6583 56.1789 59.2685 56.143Z" fill="#6DB445"/>
<path d="M60.6088 40.9753C59.733 42.8442 58.8356 44.7036 57.5099 46.5198C56.9835 45.3018 56.5289 44.1891 56.0215 43.1027C55.385 41.7387 54.7101 40.3914 54.0402 39.0419C53.856 38.6685 53.6669 38.7356 53.5162 39.0802C52.9466 38.8816 52.9371 38.2642 52.6164 37.8837C52.5709 37.7999 52.535 37.7162 52.5039 37.6277C52.4225 37.2639 52.2 36.9768 52.0014 36.6753C51.8722 36.4862 51.767 36.2828 51.6808 36.0698C51.5755 35.6343 51.2621 35.3064 51.073 34.914C50.9702 34.7034 50.8313 34.2942 51.0706 34.1195C51.3147 33.9425 51.5421 34.2942 51.6904 34.4737C52.1356 35.017 52.5184 35.6007 52.808 36.2445C53.0066 36.6896 53.222 37.1323 53.7029 37.5439C53.9876 36.3977 54.1624 35.3399 54.3873 34.2918C54.4734 33.8945 54.5022 33.4758 54.7989 33.1552C54.8324 32.4373 54.8683 31.717 54.909 30.8531C55.6723 31.5471 56.249 32.2124 56.7707 32.9327C58.4769 35.2826 59.8625 37.7856 60.4487 40.6715C60.4699 40.7791 60.5537 40.8749 60.6088 40.9753Z" fill="#81BC41"/>
<path d="M56.1569 48.5178C55.5179 47.9482 54.7091 48.1948 53.9816 48.0967C52.6128 47.9101 51.2824 47.6396 50.0379 47.0223C48.0829 44.1699 47.0826 40.9704 46.5897 37.5198C47.2932 37.6585 47.8771 37.9744 48.4753 38.2473C48.6094 38.1947 48.7553 38.1372 48.8941 38.1851C50.3323 38.6828 51.8518 38.9412 53.2253 39.6399C53.9671 40.7575 54.307 42.0473 54.7783 43.2821C55.2784 44.6963 55.7067 46.1368 56.1519 47.5703C56.2454 47.8741 56.5014 48.2019 56.1569 48.5178Z" fill="#93C340"/>
<path d="M84.9321 56.2224C85.6428 55.8396 86.3511 55.4591 87.0642 55.0738C87.2748 55.3298 87.1121 55.5476 87.0595 55.7582C86.2817 58.8115 85.0566 61.6568 83.1302 64.1743C83.0584 64.2676 82.9603 64.3346 83.0273 64.4662C82.9723 64.7007 82.776 64.7821 82.5823 64.8371C80.7756 65.3372 78.9545 65.6794 77.0689 65.3851C76.9875 65.3444 76.9253 65.2822 76.8823 65.1985C76.8081 64.9209 76.9039 64.6791 77.0379 64.4447C78.1291 62.6404 78.8828 60.6662 79.8233 58.7853C80.0268 58.3785 79.7563 58.2756 79.45 58.1918C79.2083 57.718 79.5601 57.3591 79.6964 56.9666C79.8999 56.3874 80.175 55.8371 80.3857 55.2628C80.7734 54.2051 81.1346 53.1402 81.4409 52.0562C81.527 51.7499 81.6012 51.4341 81.9577 51.312C82.7402 51.4413 82.6015 52.0538 82.5249 52.5396C82.324 53.7863 81.9051 54.9757 81.4601 56.1554C81.3045 56.5647 81.094 56.9523 80.9527 57.438C82.0201 57.2083 82.9652 56.7704 83.9319 56.3899C84.2548 56.263 84.5611 56.0597 84.9321 56.2224Z" fill="#58AA46"/>
<path d="M52.2918 55.7271C54.1224 56.4928 56.0153 57.0456 57.9799 57.3208C58.5686 57.4046 58.8103 57.6702 58.9443 58.2253C59.2339 59.441 59.6047 60.6351 59.9134 61.8459C60.0235 62.2766 60.191 62.48 60.636 62.2479C61.0094 62.3556 61.0787 62.6858 61.1409 62.9897C61.3371 63.978 61.6697 64.9328 61.8684 65.9211C61.9186 66.4906 62.2441 67.0194 62.1292 67.6153C61.5453 67.9502 61.306 67.5195 61.1888 67.1055C60.9853 66.3972 60.5115 66.1532 59.8463 66.0551C59.1212 65.9522 58.4082 65.787 57.7142 65.5477C57.5036 65.4759 57.2308 65.4592 57.2547 65.1265C55.3906 63.2194 53.7729 61.1206 52.4257 58.8187C51.7031 57.584 51.0761 56.3061 50.4755 54.832C51.1623 55.172 51.727 55.4496 52.2918 55.7271Z" fill="#3C9F47"/>
<path d="M60.4231 92.8482C58.1809 94.9587 55.6347 96.5931 52.7871 97.8423C52.7488 97.4091 53.1915 97.2943 53.2154 96.9641C53.6007 95.892 54.3114 94.9612 54.577 93.8389C54.6679 93.4537 54.9767 93.09 54.2085 92.8961C53.6988 92.7669 54.1726 92.3601 54.3856 92.116C56.2784 91.001 58.1425 89.8475 59.954 88.6103C60.5666 88.2298 61.2223 87.9163 61.7057 87.5311C61.5191 87.6532 61.2391 87.8374 60.9615 88.024C60.6672 88.2251 60.3441 88.2634 60.0666 88.0623C59.4348 87.6053 58.7073 87.2918 58.1355 86.7485C57.9536 86.6887 57.7741 86.6241 57.4582 86.5164C59.4803 85.308 61.531 84.5063 63.6799 83.9703C65.4053 83.5396 67.1521 83.1998 68.9492 83.3529C68.7888 83.6042 68.5591 83.7932 68.3078 83.9319C65.4937 85.4994 63.0193 87.5788 60.1885 89.2132C61.3707 89.644 61.4616 91.8073 60.4231 92.8482Z" fill="#0F9647"/>
<path d="M57.2553 65.1256C58.2077 65.5779 59.2391 65.7431 60.2609 65.901C60.8687 65.992 61.1942 66.2648 61.3282 66.8343C61.4239 67.2316 61.4885 67.6742 62.07 67.6168C62.4098 67.7125 62.4793 68.0188 62.5582 68.294C63.0081 69.8375 63.6111 71.3354 63.9389 72.9221C64.1614 73.9845 64.6329 75.004 65.3771 75.8056C66.1069 76.5929 66.5233 77.574 67.179 78.3973C67.3346 78.5911 67.4733 78.8448 67.4015 79.1319C65.1617 78.0359 63.3861 76.3464 61.711 74.5589C58.9903 71.6563 56.8652 68.3324 55.0131 64.8267C54.9197 64.6544 54.8647 64.4606 54.757 64.1902C55.6521 64.4987 56.3867 64.9989 57.2553 65.1256Z" fill="#008C46"/>
<path d="M51.8877 84.3795C52.0935 84.2216 52.3016 84.0613 52.6342 83.8029C48.7504 83.9561 45.1203 83.3171 41.3753 81.9148C41.9592 81.788 42.3134 81.7114 42.6675 81.6372C43.3542 81.0605 44.2277 80.8667 45.0102 80.4886C45.9673 80.0268 46.8241 79.4452 47.597 78.5862C47.1208 78.287 46.611 78.1889 46.1253 78.0526C44.7158 77.6578 43.3519 77.1504 42.0525 76.478C41.7103 76.3009 41.2364 76.1095 41.6815 75.5782C41.9495 75.4586 42.1983 75.5519 42.4472 75.6404C43.7945 76.2434 45.1992 76.6933 46.5967 77.1647C47.2859 77.5357 48.1785 77.3945 48.7695 78.019C48.8509 78.4378 49.229 78.4258 49.5209 78.5168C51.2295 79.0481 52.9476 79.5433 54.661 80.0554C55.769 80.388 55.9173 80.7637 55.2545 81.6682C54.539 82.6446 53.6321 83.439 52.7227 84.2311C52.5073 84.4178 52.2298 84.6954 51.8877 84.3795Z" fill="#0A9747"/>
<path d="M48.6779 78.0394C47.9672 77.8073 47.2565 77.5728 46.5458 77.3407C46.34 77.032 46.0361 76.8908 45.6915 76.7831C44.6099 76.4433 43.5307 76.0987 42.4873 75.6488C42.1977 75.5388 41.8914 75.455 41.7478 75.1344C41.408 73.8804 41.2071 72.5882 40.6805 71.3869C40.5968 71.1931 40.6111 70.9896 40.6972 70.7959C40.513 70.4681 40.2426 69.9273 40.0631 69.6066C40.0631 69.6066 40.6039 69.7143 40.8026 69.7621C43.2577 70.3101 45.6125 71.1309 47.7996 72.3944C48.0101 72.5164 48.1944 72.7653 48.4983 72.6457C49.0271 73.5551 49.0583 74.5793 49.1397 75.5819C49.2785 77.2808 49.2593 77.2665 50.9081 77.6685C51.377 77.7858 52.1907 77.7356 51.7001 78.664C50.6115 78.853 49.6279 78.5228 48.6779 78.0394Z" fill="#6DB445"/>
<path d="M72.7325 60.6683C72.9909 58.0599 73.6227 55.5664 75.0681 53.231C75.257 53.6234 75.4055 53.9345 75.5538 54.2408C76.5374 55.4302 77.4132 56.7079 78.5403 57.7752C78.8585 58.0744 78.7843 58.4668 78.6576 58.8449C78.5379 59.2014 78.3728 59.5579 78.5738 59.9385C78.6552 60.946 77.954 61.659 77.5927 62.4942C77.3414 63.0781 77.0041 63.6261 76.7624 64.2171C76.6451 64.4492 76.4896 64.6431 76.2719 64.7867C75.956 64.9901 75.5779 65.0906 75.2955 64.8346C74.0438 63.6977 72.9503 62.4486 72.7325 60.6683Z" fill="#6DB445"/>
<path d="M67.401 79.1319C66.5205 78.1341 65.9629 76.916 65.1086 75.8823C64.271 74.8724 63.7997 73.6281 63.5435 72.2593C63.2468 70.6752 62.5768 69.1605 62.0694 67.617C61.9307 67.0786 61.7918 66.5425 61.6555 66.0065C61.9498 65.3652 62.4858 65.0398 63.1439 64.8746C63.6583 64.9368 63.8331 65.3628 64.046 65.7361C64.2326 66.0664 64.3595 66.4277 64.5677 66.746C65.1899 67.6911 65.769 67.7965 66.652 67.1168C66.9033 66.923 67.1354 66.6789 67.5015 66.7819C67.1187 69.4094 66.7693 72.0392 66.9104 74.7074C66.9869 76.0977 67.1113 77.4809 67.5971 78.8041C67.7048 79.0985 67.6858 79.1056 67.401 79.1319Z" fill="#006C39"/>
<path d="M78.5525 71.0232C79.1148 70.8916 79.6771 70.7624 80.3495 70.6045C79.7776 71.5976 78.9903 72.27 78.2174 72.9472C76.8391 74.1628 75.2406 75.1033 73.9292 76.4146C72.3833 77.9629 70.8829 79.5278 69.9641 81.5548C69.9139 81.6648 69.9306 81.9615 69.6769 81.8443C69.5955 81.8061 69.598 81.5883 69.5621 81.4519C69.4736 78.3984 70.2009 75.5533 71.7517 72.9186C71.8833 72.6912 72.034 72.4735 72.1584 72.2414C72.85 70.9419 72.85 70.9419 74.2929 71.1501C75.2861 71.2267 76.2695 71.1262 77.2554 70.997C77.6861 70.9395 78.1217 70.882 78.5525 71.0232Z" fill="#006C39"/>
<path d="M78.5525 71.0232C77.1406 71.253 75.7288 71.5043 74.2858 71.3438C74.0514 71.1524 74.1375 70.9131 74.2236 70.7025C74.9319 68.9724 75.7384 67.2854 76.5663 65.6102C76.6572 65.426 76.7745 65.2488 77.0305 65.2871C79.0693 65.3134 81.0843 65.1531 83.0273 64.4664C83.6184 64.2415 84.2094 64.0165 84.9584 63.7341C84.0203 65.2513 82.9579 66.5028 81.9002 67.7614C80.8928 68.9604 79.6676 69.9343 78.5525 71.0232Z" fill="#0F9647"/>
<path d="M78.4531 60.1215C78.1588 59.777 78.0678 59.4156 78.3382 59.0088C78.7402 58.4082 78.5034 58.0086 78.0176 57.5395C77.0246 56.5823 76.0338 55.594 75.5552 54.2419C75.9286 54.1079 75.7874 53.7514 75.8352 53.5049C76.2731 51.2483 77.1777 49.1903 78.4722 47.2185C78.8982 47.6109 78.9676 48.1542 79.2476 48.5682C79.8123 48.7836 80.0516 49.3028 80.2933 49.7838C80.5518 50.3031 80.8653 50.7817 81.2051 51.2459C81.4468 52.1577 80.9706 52.9354 80.7002 53.7466C80.5279 54.273 80.3533 54.7827 80.559 55.3354C80.1976 56.2782 79.8339 57.2211 79.4702 58.1639C79.3816 58.9443 79.1399 59.6502 78.4531 60.1215Z" fill="#94C340"/>
<path d="M41.8038 75.6257C41.4354 76.0062 41.7727 76.0876 42.0432 76.2312C43.6489 77.0854 45.3934 77.5736 47.1115 78.1312C47.4298 78.234 47.9323 78.1072 48.0184 78.4926C48.0926 78.8251 47.5877 78.8969 47.3723 79.1195C46.0801 80.4691 44.3978 81.0984 42.6677 81.6368C42.8663 81.151 42.3901 81.2731 42.2274 81.2109C40.0882 80.3662 38.1953 79.1313 36.4771 77.619C36.3264 77.4873 36.2067 77.3223 36.0535 77.1524C36.4196 76.9442 36.7667 77.0902 37.0993 77.0782C37.3912 76.8581 37.7334 76.8222 38.0828 76.7672C38.973 76.6308 39.8704 76.4968 40.6912 75.9057C40.1096 75.341 39.3917 75.0561 38.8294 74.568C38.5614 74.3311 38.0206 74.1827 38.3652 73.6276C39.564 74.2019 40.8897 74.5608 41.8038 75.6257Z" fill="#58AA46"/>
<path d="M77.0301 65.2871C75.9796 67.2421 74.9697 69.2188 74.2877 71.3437C73.2636 71.0206 72.828 71.4754 72.2704 72.3799C70.5978 75.0911 69.8775 78.0178 69.6884 81.1333C69.6835 81.241 69.607 81.3439 69.5616 81.4516C69.0998 80.5183 68.9849 79.4966 68.8413 78.4891C68.3579 75.0648 68.8317 69.4891 69.8416 66.8593C70.1694 67.4576 70.4685 68.0032 70.7677 68.5463C71.3659 68.7857 71.5215 69.4126 71.8996 69.8409C72.2513 70.2381 72.4069 70.329 72.8782 69.8289C74.0437 68.587 74.649 67.0387 75.4866 65.6172C75.6349 65.3659 75.7713 65.1028 76.0442 64.9544C76.3744 64.8516 76.6711 64.8995 76.9247 65.1459C76.9606 65.1914 76.9942 65.2393 77.0301 65.2871Z" fill="#008B46"/>
<path d="M55.512 75.2772C55.3517 75.0355 55.1914 74.7963 55.0382 74.5641C55.2057 74.4015 55.3469 74.4756 55.4761 74.5091C60.1089 75.7247 64.2201 77.8855 67.6635 81.2549C67.8095 81.3961 67.9482 81.5468 68.0799 81.7024C68.1493 81.7789 68.2617 81.8962 68.0918 81.9584C68.0008 81.992 67.8717 81.9202 67.7592 81.8939C66.3307 81.4895 64.9498 80.9343 63.4926 80.6303C62.5282 80.4294 61.583 80.1948 60.5636 80.3982C59.8171 80.5466 59.068 80.2331 58.3238 80.0967C57.5796 79.9579 56.845 79.7712 56.084 79.721C55.914 79.6611 55.7537 79.5942 55.7537 79.374C56.1654 78.7758 56.1366 78.1441 55.9619 77.4693C55.7752 76.7489 55.445 76.0526 55.512 75.2772Z" fill="#0A9747"/>
<path d="M55.512 75.2773C55.9284 76.2106 56.1318 77.2036 56.3352 78.1967C56.4501 78.7495 56.2969 79.1731 55.7728 79.4315C55.6604 79.6086 55.4809 79.6157 55.3133 79.5894C54.2006 79.4124 53.0974 79.1874 52.0014 78.9266C51.8339 78.886 51.6736 78.8069 51.621 78.6131C51.8531 78.2111 51.6808 78.0484 51.2741 77.9503C50.5131 77.7708 49.477 77.9168 49.0629 77.3497C48.6944 76.8448 48.9672 75.8948 48.8859 75.1481C48.7974 74.3105 48.6322 73.4802 48.4982 72.645C48.4193 72.3746 48.3379 72.1019 48.2206 71.7046C49.5152 72.176 50.659 72.7264 51.7789 73.3223C52.7768 73.8511 53.7484 74.4326 54.7343 74.983C54.976 75.1194 55.1722 75.3946 55.512 75.2773Z" fill="#3BA047"/>
<path d="M54.7993 33.1562C54.5241 34.6159 54.2513 36.0756 53.9713 37.5329C53.9427 37.6956 53.945 37.9133 53.7369 37.9565C53.5191 38.0043 53.4449 37.7938 53.3588 37.6549C52.8394 36.7839 52.3346 35.9032 51.8153 35.0299C51.6717 34.7858 51.5041 34.5561 51.2241 34.1373C51.1068 35.0323 51.3222 35.3338 51.8391 35.956C51.2983 35.8722 51.1212 35.3984 50.882 35.0155C49.64 33.0437 48.3023 31.1485 46.5578 29.5787C45.6892 28.6287 44.677 27.8606 43.6073 27.1451C43.313 26.9488 42.7602 26.8172 42.9612 26.2262C47.1586 27.4968 51.0423 29.3131 54.0646 32.6297C54.2609 32.8451 54.4093 33.1873 54.7993 33.1562Z" fill="#A6CB3F"/>
<path d="M90.4905 75.9819C90.7872 75.8862 91.0863 75.8216 91.5099 75.9101C89.16 77.7862 86.6546 79.1908 83.8692 80.0882C83.7065 80.1408 83.5509 80.2222 83.393 80.2892C83.0077 80.5955 82.6703 80.3108 82.3305 80.1911C81.6917 79.9662 81.1125 79.6264 80.5741 79.2148C79.8825 78.6811 79.8778 78.4274 80.6267 78.0207C81.3279 77.6402 81.8758 77.1735 82.029 76.348C83.0651 75.532 84.3095 75.051 85.3552 74.2422C86.3004 73.5076 87.4203 73.0146 88.2938 72.1746C88.6527 71.8061 89.105 71.5621 89.5214 71.2701C89.7822 71.1528 90.0861 70.9183 90.3135 71.2103C90.5719 71.5429 90.2776 71.842 90.0455 72.0382C89.2653 72.6987 88.5164 73.3999 87.6477 73.9575C87.217 74.2327 86.5014 74.5007 86.6187 75.0152C86.7312 75.5081 87.5042 75.4339 88.0019 75.5632C88.4854 75.6876 88.9879 75.7019 89.4831 75.7354C89.8324 75.7593 90.1914 75.7449 90.4905 75.9819Z" fill="#0F9647"/>
<path d="M76.2052 65.0056C75.6858 65.5392 75.3006 66.1973 75.0733 66.8625C74.5875 68.2814 73.4006 69.2124 72.7616 70.5046C72.5941 70.8395 72.4385 70.6769 72.228 70.5046C71.5723 69.9733 71.2109 69.2316 70.7682 68.5471C70.6533 65.6062 70.919 62.7106 71.8044 59.8894C71.8546 59.7242 71.9097 59.5639 72.003 59.2792C72.2782 59.8056 72.5055 60.2364 72.7328 60.6695C73.3766 62.0072 74.0753 63.2994 75.121 64.393C75.5589 64.8525 76.095 64.7998 76.5257 64.4576C76.7484 64.6706 76.3488 64.8596 76.2052 65.0056Z" fill="#3C9F47"/>
<path d="M84.9321 56.2223C83.5395 56.7823 82.1682 57.4068 80.6535 57.7874C80.632 57.2753 80.9096 56.8972 81.0746 56.4976C81.6059 55.2054 82.0366 53.8797 82.3118 52.5109C82.3908 52.1232 82.5751 51.6255 81.9601 51.4293C81.728 51.2426 81.7998 50.977 81.7735 50.7377C82.0487 49.8283 82.0175 48.8233 82.6086 48.012C83.0346 48.0958 83.0274 48.4596 83.0489 48.7635C83.0921 49.3689 83.0896 49.9791 82.903 50.5701C83.7405 49.9552 84.432 49.1176 85.4467 48.7323C85.8081 48.3566 86.1694 47.9857 86.6265 47.5143C86.8395 48.7515 86.6935 49.8858 86.5476 51.008C86.3322 52.6424 85.856 54.2003 85.1022 55.672C85.0135 55.8443 84.8436 55.995 84.9321 56.2223Z" fill="#81BC41"/>
<path d="M81.9982 76.5824C82.374 77.5851 81.4742 77.8005 80.9405 78.0732C80.1054 78.4992 80.1293 78.681 80.8999 79.1645C81.6896 79.6599 82.4913 80.0666 83.3934 80.2891C83.8696 80.4088 84.3482 80.526 84.8962 80.6625C84.3625 81.299 83.6111 81.4952 82.9028 81.7417C81.1487 82.3567 79.3133 82.3879 77.4827 82.4165C76.3197 82.4332 75.1567 82.4572 73.9938 82.4501C73.0318 82.4453 72.1129 82.6702 71.1892 82.8856C71.395 81.9284 72.1967 81.4594 72.9409 81.1459C74.2139 80.6122 75.4176 79.983 76.5782 79.2482C78.191 78.4155 79.8326 77.6354 81.3881 76.6925C81.5771 76.5824 81.7757 76.5106 81.9982 76.5824Z" fill="#006C39"/>
<path d="M42.9607 26.2251C43.3818 27.089 44.351 27.2756 45.0163 27.8499C45.5403 28.3022 46.062 28.7424 46.5071 29.2737C48.6439 31.4441 50.3717 33.9114 51.8386 36.5676C51.9559 36.9001 52.066 37.2352 52.2885 37.5152C52.346 37.5966 52.3962 37.6827 52.4441 37.7689C52.6403 38.123 52.7839 38.5011 52.9658 38.8625C53.0806 39.0993 53.3176 39.3626 52.9897 39.6283C51.487 39.1688 49.9794 38.7069 48.4741 38.2475C48.5891 38.1231 48.5699 37.9748 48.5292 37.8359C47.2084 33.4496 45.9425 29.0346 41.8768 26.0027C42.2092 25.9787 42.616 26.1198 42.9607 26.2251Z" fill="#B8D437"/>
<path d="M44.3371 62.8347C49.0799 64.8401 53.7439 66.9507 56.6561 71.8371C51.1044 70.5903 47.5005 67.0176 44.3371 62.8347Z" fill="#006C39"/>
<path d="M38.3721 73.6754C38.6665 74.5369 39.5758 74.6805 40.1621 75.2021C40.4588 75.4629 41.0834 75.4893 41.0523 75.9296C41.0211 76.3532 40.4134 76.3652 40.0687 76.5135C39.1354 76.9227 38.1185 77.0399 37.099 77.0782C31.6167 71.0192 31.9709 69.8491 31.0424 65.9916C31.2315 65.8456 31.4707 66.1854 31.5904 66.317C31.8847 66.6449 32.1696 66.9751 32.4017 67.3508C33.8159 69.6266 35.7973 71.3518 37.8768 72.9791C38.0945 73.1753 38.3769 73.3236 38.3721 73.6754Z" fill="#81BC41"/>
<path d="M56.1137 79.6248C56.6498 79.3855 57.1762 79.6033 57.65 79.7612C59.6721 80.4385 61.8378 79.8042 63.8526 80.4839C65.164 80.9241 66.5782 81.0893 67.758 81.8933C65.2286 81.9197 62.9816 83.006 60.6509 83.7886C59.3467 84.2242 58.0689 84.753 56.7001 84.9804C56.4393 84.5999 56.8078 84.4228 56.9705 84.193C57.1237 83.9801 57.3558 83.8365 57.5352 83.645C58.5211 82.5969 58.3488 81.7833 57.0303 81.2736C56.8126 81.1898 56.5877 81.1252 56.377 81.0247C55.6185 80.6706 55.561 80.3571 56.1137 79.6248Z" fill="#006C39"/>
<path d="M60.4231 92.8486C60.7102 92.291 60.7533 91.6665 60.8514 91.0659C61.0716 89.7162 60.9782 89.6181 59.4348 89.4435C62.761 87.419 65.6231 85.0356 68.9493 83.3533C69.0546 83.3127 69.1335 83.4036 69.0761 83.4514C67.188 85.0858 66.1782 87.3447 64.8549 89.3788C63.8547 90.915 62.8065 92.4058 61.3684 93.5808C60.9591 93.9134 60.5357 94.2101 59.9852 94.3466C60.0162 93.7939 60.4398 93.3846 60.4231 92.8486Z" fill="#006C39"/>
<path d="M37.7868 73.208C35.791 71.7052 33.9365 70.066 32.5007 67.9866C32.0796 67.3764 31.8259 66.6298 31.1439 66.2182C30.986 66.053 31.0003 65.5338 31.0003 65.5338C33.7499 68.2977 37.2173 69.5564 40.6967 70.796C41.2829 72.1959 41.7352 73.6317 41.9051 75.1464C41.1657 75.3522 40.6919 74.7563 40.108 74.517C39.2872 74.1772 38.6052 73.5694 37.7868 73.208Z" fill="#94C340"/>
<path d="M60.2489 88.7096C58.3273 90.0593 56.3101 91.2605 54.2952 92.4642C54.221 92.4475 54.1492 92.4259 54.0774 92.3996C52.888 92.6413 51.9189 93.3999 50.7966 93.7971C50.3874 93.9407 50.0046 94.1896 49.538 94.0842C48.6621 93.4477 47.6356 93.0553 46.7884 92.3685C46.5563 92.2751 46.3242 92.1794 45.97 92.0359C47.8079 90.837 49.7007 90.021 51.7012 89.4228C51.9644 89.3439 52.3592 89.4587 52.4693 89.0447C53.2064 88.9203 53.5318 89.5592 53.9816 89.911C55.3743 90.9926 55.3648 91.0356 56.8293 90.033C57.6573 89.4658 58.5308 88.9896 59.428 88.5589C59.7033 88.4249 60.0766 88.1281 60.2489 88.7096Z" fill="#6CB545"/>
<path d="M56.1138 79.6252C55.7213 80.3886 56.0276 80.7332 56.7934 80.9772C58.8011 81.6137 58.9614 82.6308 57.3653 84.1024C57.102 84.3441 56.7623 84.569 56.7 84.9806C54.8047 85.5023 52.9072 85.653 50.7894 85.0213C51.2704 84.7413 51.5791 84.5618 51.8878 84.3799C53.4025 83.6165 54.4698 82.3794 55.3982 81.0082C55.7093 80.5463 55.2356 80.4482 54.9723 80.3693C53.0531 79.7878 51.122 79.2398 49.198 78.6703C48.9109 78.5818 48.3151 78.6894 48.6787 78.0386C49.6598 78.23 50.6386 78.4214 51.622 78.6129C52.986 78.9766 54.3691 79.2494 55.7715 79.4312C55.8865 79.4961 55.9989 79.5606 56.1138 79.6252Z" fill="#008043"/>
<path d="M90.4905 75.9818C89.1098 76.0201 87.7601 75.8837 86.4536 75.3883C85.9965 75.2161 85.8553 75.1729 86.286 74.7399C87.2408 73.7826 88.4996 73.2299 89.4424 72.2608C89.6434 72.0574 89.9258 71.933 90.0741 71.6673C90.1411 71.55 90.3421 71.4448 90.2034 71.3036C90.0478 71.1504 89.8924 71.3538 89.7368 71.3993C89.5765 71.0283 89.8875 70.8825 90.0837 70.6861C91.1797 69.5949 92.2661 68.4965 93.1252 67.1996C93.3932 66.9029 93.5225 66.453 94.0082 66.3932C94.3815 66.6947 94.0704 66.9699 93.946 67.2188C93.3789 68.377 92.5461 69.3509 91.7349 70.3416C91.553 70.5617 91.2994 70.7293 91.1989 71.0667C92.1346 71.4281 93.0224 70.8562 93.9293 70.9543C94.1997 70.8897 94.4725 70.825 94.8458 70.7365C94.0034 72.3183 92.9075 73.6009 91.6847 74.7926C91.2826 75.1849 90.7489 75.4482 90.4905 75.9818Z" fill="#58AA46"/>
<path d="M84.1611 70.8406C85.6615 69.3666 87.205 67.9476 89.014 66.8444C89.2868 66.6792 89.5453 66.495 89.8444 66.2964C90.0693 66.6529 89.8827 66.909 89.8204 67.1699C89.9688 68.4597 90.043 69.7471 89.6937 71.0201C89.0739 71.7667 88.222 72.2215 87.473 72.8054C86.6331 73.327 85.8936 74.0067 84.958 74.3679C84.805 74.387 84.6398 74.3607 84.5823 74.2147C84.1611 73.126 83.8237 72.0253 84.1611 70.8406Z" fill="#6DB445"/>
<path d="M67.5026 66.7816C67.2323 66.9491 66.9762 67.1262 66.7536 67.3679C66.0572 68.1193 65.179 68.0283 64.5473 67.1956C64.016 66.4969 63.8413 65.5995 63.2598 64.9342C63.2551 64.781 63.3244 64.6685 63.456 64.592C64.8607 63.618 65.9303 62.3163 66.9737 60.9882C67.4427 60.3684 67.9094 59.751 68.4884 58.9829C68.7326 61.7755 68.2015 64.2881 67.5026 66.7816Z" fill="#008043"/>
<path d="M84.1611 70.8407C84.2425 72.0205 84.4387 73.181 84.7162 74.3273C84.2161 75.3299 83.1345 75.5453 82.3065 76.1029C82.0026 76.3087 81.5647 76.3613 81.5574 76.8543C80.0618 77.9311 78.3317 78.5701 76.7236 79.4387C76.2929 79.1228 76.6159 78.8907 76.8337 78.6945C77.2285 78.3403 77.688 78.0794 78.181 77.8881C78.7505 77.6656 78.9921 77.2683 78.9324 76.6581C78.8965 76.28 78.9012 75.8972 78.9371 75.519C78.9658 75.2127 78.9299 74.8537 79.3368 74.7293C80.7893 73.1021 82.2826 71.5108 84.0078 70.1395C84.2305 70.3837 84.1419 70.6231 84.1611 70.8407Z" fill="#3BA047"/>
<path d="M54.194 92.3203C54.2275 92.3706 54.2609 92.4161 54.2944 92.4663C54.0072 92.9617 54.2658 92.8683 54.5576 92.7031C55.0099 92.4495 55.0793 92.672 54.9979 93.0526C54.6868 94.4835 54.2035 95.8404 53.2152 96.9627C51.3583 97.5992 49.4965 98.2094 47.508 98.2692C47.3381 98.2741 47.1705 98.2764 46.9001 98.2835C47.1299 98.0873 47.2806 97.9581 47.4338 97.8289C47.6539 97.3934 47.9339 96.9986 48.257 96.6325C48.8217 95.9864 49.2669 95.2828 49.1998 94.3663C50.9156 93.8111 52.4782 92.8755 54.194 92.3203Z" fill="#58AA46"/>
<path d="M79.3366 74.7306C78.9945 75.3575 79.1069 76.0563 79.193 76.6809C79.3127 77.5495 78.9227 77.9204 78.2191 78.1406C77.707 78.3033 77.3217 78.6623 76.879 78.9279C76.6781 79.05 76.6038 79.2175 76.7235 79.44C75.5749 80.2345 74.3783 80.8974 73.0311 81.3473C72.306 81.589 71.7342 82.2829 71.1885 82.8859L70.7793 83.1587C71.8346 80.2537 76.2999 75.5107 79.4036 73.972C79.3797 74.2401 79.3581 74.4865 79.3366 74.7306Z" fill="#008C46"/>
<path d="M60.2489 88.7097C60.0025 88.4154 59.7967 88.6379 59.5622 88.7456C58.392 89.284 57.3319 90.0067 56.2695 90.7222C55.5875 91.1793 54.9916 91.3228 54.3288 90.5906C53.7951 89.9971 53.0964 89.5544 52.4694 89.0447C52.3138 88.9681 52.1368 88.9226 52.0578 88.7096C54.0033 87.8098 56.1043 87.3864 58.136 86.7498C58.7748 86.8072 59.2822 87.1733 59.7177 87.5777C60.2824 88.1018 60.7396 88.0443 61.309 87.604C61.656 87.336 61.991 86.9699 62.6108 87.1398C61.8235 87.664 61.0361 88.1857 60.2489 88.7097Z" fill="#3BA047"/>
<path d="M85.4475 48.7316C84.6459 49.5164 83.7557 50.1913 82.7315 50.9402C82.7817 50.2008 82.8631 49.6049 82.8439 49.0115C82.832 48.7053 82.9732 48.2889 82.5472 48.0951C82.1978 47.8941 82.3726 47.5853 82.3965 47.3173C82.4707 46.4798 82.5305 45.6398 82.5258 44.7951C82.4324 42.8592 82.3392 40.9209 81.7577 39.0497C81.7361 38.7314 81.6955 38.4299 81.7241 38.2504C83.696 41.3062 85.1222 44.4003 85.3017 47.9658C85.3159 48.2171 85.3781 48.4229 85.4475 48.7316Z" fill="#A6CB3F"/>
<path d="M63.981 94.2599C63.7967 94.2455 63.5191 94.3341 63.7322 93.9632C64.316 92.9533 65.4862 92.0847 65.6202 91.1036C65.7829 89.9214 66.3572 89.0911 66.8718 88.1913C67.5969 86.9231 68.645 85.8893 69.7888 84.9704C70.0352 84.7742 70.0424 84.7862 70.1453 85.1044C69.7815 85.9826 69.3269 86.8082 69.2288 87.8085C69.1164 88.993 68.6139 90.1153 68.3673 91.2854C68.3242 91.4889 68.1926 91.6516 68.0155 91.7736C67.5776 91.9459 67.4747 92.3526 67.3598 92.7428C67.2354 93.164 67.099 93.5779 66.8956 93.9656C66.752 94.2336 66.563 94.4944 66.2303 94.449C65.4837 94.3508 64.7132 94.5207 63.981 94.2599Z" fill="#2A9A47"/>
<path d="M70.2426 57.8732C68.9122 53.3816 70.2044 49.4906 71.9129 45.6548C72.4299 49.7945 72.6092 53.8914 70.2426 57.8732Z" fill="#008043"/>
<path d="M71.5547 86.4336C72.8851 88.0752 74.2228 89.712 75.5461 91.3607C76.0031 91.9302 76.429 92.5261 76.8646 93.1124C76.9866 93.275 77.1398 93.4426 77.1877 93.6292C77.3074 94.1197 76.3477 95.0052 75.436 95.2588C74.7348 95.4551 74.1558 95.3569 73.9021 94.5553C73.4235 93.0237 72.9377 91.4971 72.4616 89.9655C72.105 88.8146 71.7604 87.6611 71.4087 86.5077C71.4566 86.4838 71.5044 86.4575 71.5547 86.4336Z" fill="#006C39"/>
<path d="M40.7792 89.537C44.4979 87.637 48.2883 85.9763 52.8446 86.6583C49.0924 89.2881 45.01 89.6854 40.7792 89.537Z" fill="#006C39"/>
<path d="M81.7588 39.0485C82.649 40.2522 82.4361 41.7094 82.661 43.0614C82.7567 43.6261 82.7088 44.2125 82.7255 44.7868C82.4648 46.7777 82.3116 48.7903 81.6511 50.7094C81.5243 50.9966 81.5985 51.3986 81.1845 51.5182C80.2488 50.7237 79.9928 49.4865 79.2486 48.5677C80.8327 45.5909 82.0316 42.5134 81.7588 39.0485Z" fill="#B8D437"/>
<path d="M65.4871 100.647C64.5491 100.812 63.9413 101.599 63.0487 101.893C61.8331 102.298 60.6246 102.673 59.1697 102.752C60.5816 101.599 61.4215 100.199 62.2064 98.7658C62.3021 98.5912 62.405 98.0814 62.1083 97.8421C62.5175 97.2845 63.3335 97.7081 63.8863 97.653C64.6138 97.5812 65.0731 97.2486 65.3723 96.6001C65.6403 96.0139 65.8605 95.406 66.1883 94.8461C66.3726 94.5326 66.5568 94.1904 66.9804 94.5804C66.8488 95.9803 66.0376 97.0667 65.3197 98.1986C65.1163 98.4021 64.8579 98.5504 64.7597 98.7849C64.9416 98.5959 65.1426 98.2512 65.4967 98.6413C65.8197 99.0027 65.8078 100.139 65.4871 100.647Z" fill="#8CC140"/>
<path d="M49.1627 94.6081C49.414 94.9047 49.5552 95.1513 49.2728 95.5724C48.7296 96.3884 48.1792 97.1852 47.4326 97.829C47.4996 97.3695 47.1455 97.5705 46.9851 97.5777C43.982 97.7189 41.3329 96.6563 38.7987 95.1967C38.7197 95.1512 38.5714 94.9383 38.5714 94.8857C38.5714 94.8354 38.8346 94.8665 38.971 94.8617C41.0457 95.2901 43.1348 95.3811 45.2405 95.1776C46.3078 95.0484 47.3487 94.7803 48.3968 94.5578C48.6459 94.5051 48.9331 94.2323 49.1627 94.6081Z" fill="#80BC42"/>
<path d="M93.928 70.9542C93.1216 71.3538 92.2601 71.4447 91.3795 71.3993C91.1809 71.3897 90.9153 71.3993 90.8268 71.1984C90.7263 70.9735 90.9751 70.8585 91.1044 70.7055C92.2363 69.3774 93.44 68.0948 94.0621 66.4125C93.7319 65.9674 94.1052 65.6444 94.287 65.3213C94.9738 64.1032 95.4715 62.811 95.8496 61.471C96.2708 60.9685 96.2612 60.8345 96.2899 61.8634C96.3449 63.7658 96.0625 65.6371 95.5169 67.4701C95.1459 68.7096 94.531 69.8271 93.928 70.9542Z" fill="#81BC41"/>
<path d="M95.8491 61.47C95.9758 62.7526 95.2316 63.7624 94.7817 64.8633C94.5663 65.3921 94.0782 65.7917 94.0615 66.4115C93.7313 66.6317 93.6044 67.0074 93.3675 67.3017C92.9535 67.4045 92.8339 67.7971 92.6185 68.089C91.8958 69.082 90.9458 69.8502 90.0723 70.695C89.9838 70.7811 89.8618 70.7811 89.7445 70.7452C89.6057 69.5511 89.6631 68.3594 89.821 67.1702C90.6418 67.0003 91.0845 66.2847 91.6899 65.8181C93.2933 64.5857 94.7076 63.1547 95.8491 61.47Z" fill="#94C340"/>
<path d="M45.1724 95.3582C43.0786 95.5137 40.98 95.7602 38.9722 94.8628C41.528 94.5469 43.8993 93.6304 46.2516 92.6469C46.4358 92.5703 46.6105 92.4626 46.79 92.3693C47.8381 92.666 48.7332 93.2355 49.5563 93.9318C49.3361 94.5061 48.7546 94.4679 48.3143 94.609C47.2902 94.937 46.2278 95.138 45.1724 95.3582Z" fill="#94C340"/>
<path d="M67.9465 91.6333C68.4705 90.2766 68.839 88.8743 69.0592 87.4385C69.1932 86.5459 69.4828 85.7419 70.1432 85.1029C70.093 86.6847 70.5978 88.1778 70.8515 89.7117C71.0789 91.0877 71.2463 92.4637 70.6314 93.8205C70.3681 93.6768 70.4112 93.4065 70.2844 93.2342C69.8034 92.7341 69.4996 92.0736 68.851 91.6237C68.3987 92.3728 68.2265 93.2007 67.8723 93.9473C67.7144 94.2752 67.6569 94.8112 67.0467 94.6126C66.9511 93.4998 67.4201 92.5594 67.9465 91.6333Z" fill="#006C39"/>
<path d="M92.5596 59.0267C90.4155 62.4438 88.0776 65.6696 84.2632 67.8663C86.1441 63.8629 89.255 61.348 92.5596 59.0267Z" fill="#008043"/>
<path d="M67.0808 94.5263C67.5211 94.61 67.5283 94.22 67.6215 93.983C67.9326 93.2005 68.2294 92.4108 68.4854 91.6068C68.6338 91.1497 68.7462 91.0827 69.0909 91.4728C69.5671 92.0136 70.1582 92.4611 70.285 93.2341C69.8184 93.1336 70.2084 94.4545 68.6697 97.8908C68.3657 98.5775 68.5117 98.6373 68.1791 98.0224C67.8321 97.2902 67.7843 96.4502 67.277 95.6892C66.7936 96.388 66.5424 97.1992 65.992 97.8094C65.7934 98.0295 65.6426 98.4866 65.2095 98.087C65.8484 96.9671 66.497 95.8471 66.9038 94.61C66.9348 94.5263 66.9946 94.4976 67.0808 94.5263Z" fill="#0F9647"/>
<path d="M67.0808 94.5261C67.0209 94.5548 66.9635 94.5812 66.9037 94.6099C66.5878 94.4041 66.5279 94.6291 66.4202 94.8659C66.1044 95.5575 65.7455 96.2276 65.4391 96.9215C65.1758 97.5221 64.7643 97.8045 64.0919 97.8452C63.4864 97.8788 62.771 98.0175 62.2827 98.1659C61.7969 98.3191 61.8161 98.4003 62.0434 97.9051C62.4311 96.8689 62.9336 95.895 63.551 94.9785C63.7066 94.7487 63.9793 94.5812 63.9817 94.2606C64.6135 94.1194 65.2596 94.1194 65.8817 94.2367C66.401 94.3348 66.6451 94.1745 66.7958 93.7102C66.9681 93.1838 67.1859 92.6764 67.3438 92.1476C67.4396 91.8222 67.6046 91.6428 67.9444 91.6332C67.6576 92.5974 67.3704 93.5618 67.0808 94.5261Z" fill="#6CB545"/>
<path d="M81.0261 83.5955C83.4094 82.3249 88.0064 82.0281 90.6649 82.9471C88.6022 84.256 83.8426 84.5934 81.0261 83.5955Z" fill="#006C39"/>
<path d="M61.8578 94.7062C60.6086 98.1712 58.1319 100.217 55.392 102.031C56.914 99.1571 58.6632 96.4817 61.8578 94.7062Z" fill="#006C39"/>
<path d="M83.6504 86.0104C83.861 86.6613 84.4521 86.6015 84.9522 86.7092C86.0314 86.9366 87.1202 86.97 88.331 86.8026C86.9384 88.3269 85.3087 89.1285 83.4781 89.5688C82.8344 89.5999 82.5353 89.1309 82.2434 88.6834C82.0519 88.3867 82.2003 88.1474 82.4898 87.9847C82.5616 87.9417 82.6382 87.9033 82.7243 87.8818C82.6717 87.8412 82.619 87.8842 82.5664 87.8866C82.3007 87.8913 82.1118 87.8124 82.1308 87.4965C82.4588 86.8169 83.1312 86.4938 83.6504 86.0104Z" fill="#8AC040"/>
<path d="M76.3966 89.1282C75.4274 89.1282 74.8555 88.4391 74.2812 87.8312C73.5442 87.0488 72.8693 86.2016 72.2209 85.3473C71.9003 84.9237 71.4814 84.6198 71.1416 84.2321C71.759 83.8493 72.3404 84.0814 72.8837 84.3781C73.4652 84.6964 74.0466 85.0122 74.6521 85.2779C75.2575 85.5435 75.8654 85.8019 76.4611 86.089C77.045 86.4575 77.8706 86.4121 78.2558 87.1252C77.8155 87.6756 77.3489 87.2545 76.9134 87.1395C76.0016 86.8978 75.9777 86.8931 76.15 87.7833C76.2411 88.2309 76.21 88.6975 76.3966 89.1282Z" fill="#006C39"/>
<path d="M76.3966 89.1281C76.3009 88.9511 76.1812 88.774 76.119 88.5897C75.6954 87.3382 75.516 87.2281 75.9252 86.7735C76.1932 86.4719 76.9662 86.9314 77.495 87.13C77.7486 87.2281 78.0047 87.2687 78.2511 87.1013C78.8135 86.7448 79.2538 87.2616 79.7587 87.3095C80.4025 87.6852 81.2495 87.4722 81.8334 88.0178C81.7424 88.4989 81.3716 88.3816 81.0749 88.348C80.5556 88.2834 80.0411 88.1734 79.498 88.0131C79.5578 88.7669 80.3809 89.1785 80.3283 89.949C80.625 90.2768 80.4743 90.3175 80.1392 90.2337C78.8064 89.8963 77.5548 89.3722 76.4038 88.6041C76.1908 88.774 76.5522 88.9582 76.3966 89.1281Z" fill="#269947"/>
<path d="M65.2091 98.0876C66.0514 97.8675 66.1974 97.0442 66.5946 96.4532C66.8483 96.0751 66.999 95.6276 67.2719 95.0486C67.7314 96.1063 68.3008 96.9486 68.1788 98.023C67.382 98.9491 66.7526 100.026 65.7667 100.794C65.501 101.002 65.4221 100.997 65.4867 100.646C65.5083 100.478 65.6733 99.0855 65.3479 98.7816C64.8263 98.2982 64.8095 99.411 64.2783 99.2338C64.5581 98.8247 64.8238 98.4107 65.2091 98.0876Z" fill="#58AA46"/>
<path d="M79.6824 87.4384C79.1607 87.5198 78.773 87.0292 78.2513 87.101C77.6221 86.8163 76.9927 86.5314 76.3633 86.2443C76.2101 85.7609 76.5667 85.8136 76.8275 85.8399C77.2367 85.8854 77.6268 86.0361 77.9904 86.2084C78.6581 86.5243 79.1486 86.4095 79.5434 85.7681C79.7253 85.4738 79.9072 85.1652 80.1919 84.9474C80.4503 85.2776 80.7973 85.3541 81.2041 85.3973C82.044 85.4883 82.8792 85.6294 83.6498 86.0098C83.4942 86.8569 82.5202 86.9694 82.1829 87.6515C81.7761 87.9864 81.3645 87.6778 80.9553 87.661C80.5199 87.6419 80.137 87.3332 79.6824 87.4384Z" fill="#6FB545"/>
<path d="M80.1918 84.9474C80.1104 85.7012 79.4547 86.0889 79.0886 86.6585C78.9738 86.838 78.768 86.6848 78.6101 86.6298C78.0907 86.4528 77.5787 86.2517 77.0522 86.0938C76.8154 86.022 76.4946 85.754 76.363 86.2445C75.784 85.9957 75.2072 85.7467 74.6257 85.4954C74.5825 85.225 74.7477 85.0719 74.9678 85.1341C75.7503 85.3638 76.3055 85 76.8296 84.4999C76.9373 84.3994 77.088 84.3779 77.2388 84.3994C77.3848 84.5765 77.5332 84.6771 77.7988 84.6867C78.6006 84.7106 79.4117 84.7177 80.1918 84.9474Z" fill="#269947"/>
<path d="M77.238 84.4006C77.0059 84.6184 76.7905 84.8552 76.5417 85.0516C76.1205 85.3865 75.685 85.7049 75.1179 85.3363C74.893 85.1856 74.735 85.2765 74.6273 85.4966C73.8376 85.2238 73.1628 84.7141 72.4018 84.3863C72.0261 84.226 71.5858 84.0871 71.1407 84.2331C70.9492 84.1542 70.7865 84.0345 71.1215 83.9651C73.1986 83.5438 75.2494 83.5534 77.238 84.4006Z" fill="#008D46"/>
<path d="M80.3273 89.9483C80.0042 89.4602 79.6645 88.9816 79.363 88.479C79.2649 88.3138 79.1763 88.0458 79.2457 87.9047C79.351 87.6869 79.6118 87.8472 79.8009 87.8808C80.2914 87.9645 80.7772 88.077 81.2677 88.1655C81.4567 88.2014 81.6865 88.3019 81.7535 87.9836C82.067 87.6581 82.347 87.9022 82.6317 88.0387C82.3374 88.3187 82.2177 88.5939 82.6198 88.8906C82.9141 89.1035 83.1941 89.3405 83.4789 89.5702C83.9957 89.9148 83.5411 89.9101 83.3282 89.9556C82.3278 90.159 81.3276 89.9579 80.3273 89.9483Z" fill="#58AA46"/>
<path d="M56.1568 48.5178C55.6687 46.948 55.1782 45.3781 54.6947 43.8084C54.6565 43.6768 54.6565 43.5332 54.6396 43.3945C54.8048 43.2414 54.9459 43.057 55.1876 43.0211C55.7429 44.5621 56.298 46.1009 56.8507 47.6419C56.9608 48.1301 57.0685 48.6182 57.1785 49.1064C57.0206 49.3887 56.8699 49.6855 56.4918 49.3528C56.3794 49.073 56.2669 48.7954 56.1568 48.5178Z" fill="#B1CF57"/>
<path d="M55.1885 43.0213C55.0712 43.2415 54.9946 43.5238 54.6405 43.3947C54.0016 42.1766 53.7431 40.7934 52.9918 39.6281C52.8889 38.9557 52.3768 38.458 52.2213 37.8071C52.3505 37.599 52.5419 37.642 52.7333 37.6804C53.1138 38.0824 53.2694 38.6064 53.5158 39.0826L55.1885 43.0213Z" fill="#C7D77E"/>
<path d="M63.455 64.5932C63.4694 64.7512 63.376 64.8493 63.2588 64.9354L61.6555 66.0075C61.2821 64.7631 61.1147 63.4637 60.636 62.2482C60.289 60.5707 59.9397 58.8933 59.5927 57.2158C60.5905 56.5816 60.5642 56.5888 60.9399 57.7302C61.598 59.7475 62.2824 61.7575 62.9763 63.7629C63.0793 64.0596 63.2922 64.318 63.455 64.5932Z" fill="#007F41"/>
<path d="M56.4924 49.3519C56.7891 49.4596 56.9614 49.2203 57.1792 49.1055C57.9569 50.972 58.3805 52.9438 58.9093 54.8845C59.0242 55.3057 59.1486 55.7244 59.2682 56.1431C58.938 56.3656 58.5575 56.7533 58.3564 56.0498C57.7224 53.822 57.1122 51.5846 56.4924 49.3519Z" fill="#9BC541"/>
<path d="M52.7323 37.6804C52.5624 37.7236 52.3901 37.7666 52.2202 37.8072C52.1843 37.7642 51.9163 37.1827 51.756 36.8476C50.2986 34.122 48.4178 31.6884 46.5058 29.2739C47.6975 30.1498 48.6068 31.2936 49.473 32.4613C50.3106 33.5908 51.0548 34.7896 51.8396 35.9551C51.9569 36.1585 52.3661 36.929 52.6509 37.5345C52.6868 37.58 52.7156 37.6278 52.7323 37.6804Z" fill="#DFE4A0"/>
<path d="M81.1838 51.5195C81.2819 51.2443 81.38 50.9692 81.4804 50.6916C81.6551 50.615 81.8011 50.6796 81.9399 50.7897C81.9472 51.0026 81.9543 51.2156 81.9615 51.4286C81.4925 52.7303 81.0258 54.0321 80.5592 55.3363C80.217 55.0683 80.0591 54.829 80.272 54.3241C80.6526 53.4219 80.8871 52.4576 81.1838 51.5195Z" fill="#B5D15D"/>
<path d="M80.1965 58.1294C79.9883 57.8972 79.7107 58.0648 79.4714 58.1629C79.1315 58.8161 78.7917 59.4694 78.4519 60.1227C78.0379 61.525 76.236 64.8393 76.205 65.0068C76.4298 65.1265 76.6668 65.1791 76.9229 65.1457C77.0066 64.9495 77.0904 64.7533 77.1742 64.557C78.373 62.7455 79.0885 60.6924 80.0552 58.7685C80.1534 58.5745 80.3902 58.34 80.1965 58.1294Z" fill="#3C9F47"/>
<path d="M42.5902 75.5121C43.746 75.895 44.8993 76.2779 46.0552 76.6559C46.395 76.766 46.6414 76.924 46.5457 77.3403C45.1362 76.9167 43.7292 76.4908 42.413 75.8088C42.382 75.6557 42.394 75.5288 42.5902 75.5121Z" fill="#94C340"/>
<path d="M42.5901 75.5122C42.5327 75.6127 42.4728 75.7108 42.413 75.8089C42.2096 75.7491 42.0062 75.6869 41.8028 75.6247C40.6972 74.9092 39.4362 74.4665 38.3712 73.6744C38.1774 73.5188 37.9836 73.3634 37.7874 73.2078C38.2516 73.1145 38.5243 73.4854 38.8714 73.6649C39.8716 74.1794 40.7977 74.8447 41.9057 75.1461C42.059 75.4069 42.37 75.3782 42.5901 75.5122Z" fill="#B8D16B"/>
<path d="M81.5577 76.8537C80.7847 76.2866 81.6558 76.167 81.8448 76.0905C82.9049 75.6598 83.7688 74.9275 84.7164 74.3268C85.6113 73.7429 86.5064 73.1566 87.4013 72.5728C87.8176 72.7164 89.5238 70.9025 89.9521 71.082C89.8493 71.4337 83.9817 75.4563 81.9979 76.5834C81.852 76.6719 81.7037 76.7627 81.5577 76.8537Z" fill="#86BD41"/>
<path d="M88.4679 72.2931C88.219 72.4414 87.9678 72.585 87.7237 72.7429C87.4964 72.8937 87.4198 72.798 87.4006 72.573C88.2429 72.0418 89.0566 71.4747 89.7433 70.7472C90.8489 69.6895 91.6074 69.2707 92.4665 67.9762C92.5669 67.8255 93.8831 66.3131 94.0817 66.4183C93.091 67.9785 90.9685 70.0508 89.7361 71.3981L88.4679 72.2931Z" fill="#C6D680"/>
<path d="M81.9399 50.7892C81.7867 50.7557 81.6336 50.7247 81.4804 50.6911C81.9254 48.9275 82.3539 47.1591 82.5046 45.3381C82.5213 45.1395 82.5548 44.9337 82.7247 44.7877C82.8061 45.898 82.6003 46.9917 82.5452 48.0948C82.4592 49.0184 82.1577 49.8942 81.9399 50.7892Z" fill="#CDDA83"/>
<path d="M45.1724 95.3583C46.3689 94.9994 47.5654 94.6453 48.7594 94.2767C49.0347 94.1905 49.2907 94.0469 49.5563 93.9321C51.1308 93.6043 52.4613 92.6949 53.9234 92.0943C54.2226 91.9723 54.2201 91.965 54.1938 92.3192C52.6312 93.3338 50.8412 93.8482 49.1614 94.6093C47.8286 94.8439 46.5509 95.3654 45.1724 95.3583Z" fill="#AECD56"/>
<path d="M82.6315 88.0391C82.3395 88.02 82.0452 88.0008 81.7533 87.9841C81.0521 87.8428 80.3127 87.8453 79.6833 87.4384C79.7695 86.979 80.0399 87.223 80.2624 87.2877C80.8918 87.4672 81.5235 87.6371 82.184 87.6515C82.5956 87.874 83.1053 87.6156 83.6126 87.9937C83.2178 88.0127 82.9258 88.0247 82.6315 88.0391Z" fill="#B5D161"/>
</svg>
