<svg xmlns="http://www.w3.org/2000/svg" width="12.113" height="12.072" viewBox="0 0 12.113 12.072">
  <g id="cms" transform="translate(0.1 0.094)">
    <g id="Layer_1" data-name="Layer 1" transform="translate(0 0.006)">
      <path id="Path_81" data-name="Path 81" d="M0,5.585a.874.874,0,0,0,.02-.111.535.535,0,0,1,.365-.5c.158-.062.318-.124.473-.193a.18.18,0,0,0,.091-.1,5.282,5.282,0,0,1,.576-1.387.178.178,0,0,0,.007-.136c-.062-.159-.132-.314-.2-.47a.517.517,0,0,1,.093-.6q.329-.344.675-.671a.506.506,0,0,1,.583-.093c.161.067.319.141.482.2a.192.192,0,0,0,.147-.009A5.341,5.341,0,0,1,4.692.937.194.194,0,0,0,4.8.838c.072-.158.13-.322.2-.482A.516.516,0,0,1,5.492.011q.47-.009.941,0a.507.507,0,0,1,.477.331c.069.159.124.325.2.482a.224.224,0,0,0,.124.112A5.2,5.2,0,0,1,8.587,1.5a.163.163,0,0,0,.171.014c.151-.07.3-.133.458-.2a.519.519,0,0,1,.6.1c.23.217.455.442.673.673a.5.5,0,0,1,.095.571c-.065.157-.13.314-.2.468a.17.17,0,0,0,.009.182,5.119,5.119,0,0,1,.567,1.353.208.208,0,0,0,.1.119c.147.068.3.124.451.184a.545.545,0,0,1,.376.52.683.683,0,0,0,.02.1v.7a.67.67,0,0,0-.02.1.545.545,0,0,1-.377.52c-.151.06-.3.116-.451.184a.2.2,0,0,0-.1.108,5.428,5.428,0,0,1-.571,1.378.206.206,0,0,0-.008.155c.058.155.128.307.194.459a.517.517,0,0,1-.1.6c-.213.224-.433.442-.657.656a.526.526,0,0,1-.623.1c-.148-.066-.3-.134-.449-.19a.21.21,0,0,0-.157.01,5.465,5.465,0,0,1-1.38.569.193.193,0,0,0-.109.1c-.07.155-.128.315-.193.472a.534.534,0,0,1-.5.354.947.947,0,0,0-.113.02h-.7a.51.51,0,0,0-.089-.019.554.554,0,0,1-.541-.4c-.056-.148-.114-.3-.179-.439a.181.181,0,0,0-.1-.091,5.308,5.308,0,0,1-1.389-.574.178.178,0,0,0-.136-.008c-.163.062-.321.134-.481.2a.512.512,0,0,1-.593-.1c-.227-.215-.449-.437-.665-.663a.518.518,0,0,1-.1-.611c.066-.152.137-.3.194-.459a.229.229,0,0,0-.012-.157c-.147-.333-.306-.663-.453-1C1,7.417.993,7.221.89,7.114A1.216,1.216,0,0,0,.437,6.92.562.562,0,0,1,.018,6.37.461.461,0,0,0,0,6.282ZM10.244,2.441a.445.445,0,0,0-.059-.1c-.2-.207-.41-.411-.614-.617a.168.168,0,0,0-.211-.031c-.195.087-.392.167-.587.253a.26.26,0,0,1-.264-.021,4.658,4.658,0,0,0-1.516-.628.256.256,0,0,1-.2-.173C6.719.922,6.637.726,6.56.528A.17.17,0,0,0,6.386.4H5.538a.178.178,0,0,0-.183.129c-.076.2-.158.395-.235.593a.248.248,0,0,1-.192.165,4.67,4.67,0,0,0-1.516.626.276.276,0,0,1-.285.018c-.191-.085-.385-.164-.576-.248a.163.163,0,0,0-.2.029q-.309.306-.617.614a.163.163,0,0,0-.031.2c.085.19.164.384.248.575a.276.276,0,0,1-.018.285,4.613,4.613,0,0,0-.625,1.5.263.263,0,0,1-.179.208c-.2.073-.388.155-.583.23a.176.176,0,0,0-.131.182q0,.411,0,.823a.2.2,0,0,0,.147.206c.193.07.381.153.572.226a.255.255,0,0,1,.173.2A4.661,4.661,0,0,0,1.935,8.48a.267.267,0,0,1,.017.274c-.083.186-.159.377-.244.564a.181.181,0,0,0,.034.231q.3.293.591.589a.182.182,0,0,0,.231.035c.183-.083.37-.157.554-.24a.285.285,0,0,1,.3.018,4.634,4.634,0,0,0,1.505.623.256.256,0,0,1,.2.171c.076.2.158.395.235.593a.171.171,0,0,0,.175.124q.424,0,.848,0a.178.178,0,0,0,.183-.13c.074-.191.155-.379.226-.571a.279.279,0,0,1,.223-.192A4.623,4.623,0,0,0,8.5,9.948a.268.268,0,0,1,.274-.023c.186.083.379.158.565.244a.188.188,0,0,0,.241-.035q.293-.3.591-.589a.176.176,0,0,0,.034-.221c-.084-.186-.161-.377-.245-.564a.276.276,0,0,1,.018-.285,4.636,4.636,0,0,0,.625-1.5.262.262,0,0,1,.179-.207c.2-.074.388-.155.583-.23a.176.176,0,0,0,.131-.182q0-.417,0-.834a.184.184,0,0,0-.136-.19c-.2-.074-.388-.155-.583-.231a.255.255,0,0,1-.172-.2,4.66,4.66,0,0,0-.629-1.511.266.266,0,0,1-.017-.274c.083-.186.163-.376.243-.564C10.218,2.517,10.228,2.484,10.244,2.441Z" transform="translate(0 -0.006)" fill="#fff" stroke="#fff" stroke-width="0.2"/>
      <path id="Path_82" data-name="Path 82" d="M59.89,54.842a4.37,4.37,0,1,1-4.379-4.372A4.371,4.371,0,0,1,59.89,54.842ZM55.52,58.8a3.965,3.965,0,1,0-3.973-3.944A3.978,3.978,0,0,0,55.52,58.8Z" transform="translate(-49.563 -48.904)" fill="#fff" stroke="#fff" stroke-width="0.2"/>
      <path id="Path_83" data-name="Path 83" d="M154.8,134.735l.456-.911c.023-.045.044-.091.069-.134a.3.3,0,0,1,.564.113.85.85,0,0,1,0,.116v2.949c-.006.143-.088.235-.206.231s-.19-.091-.19-.232v-2.574l-.027-.006-.111.222-.281.558a.3.3,0,0,1-.553,0c-.115-.228-.229-.456-.344-.683a.235.235,0,0,0-.074-.093v2.582a.207.207,0,0,1-.2.223.2.2,0,0,1-.194-.228v-3a.3.3,0,0,1,.239-.336.306.306,0,0,1,.351.2C154.464,134.063,154.625,134.388,154.8,134.735Z" transform="translate(-148.941 -129.386)" fill="#fff" stroke="#fff" stroke-width="0.2"/>
      <path id="Path_84" data-name="Path 84" d="M237.343,134.552a.576.576,0,0,0,.537.581,1.092,1.092,0,0,1,.791.333.991.991,0,1,1-1.723.728c-.006-.161.058-.248.186-.255s.2.075.212.235a.594.594,0,1,0,.747-.613,1.5,1.5,0,0,0-.242-.029.99.99,0,1,1,1.074-1.085.431.431,0,0,1-.022.192.172.172,0,0,1-.2.1.187.187,0,0,1-.165-.17c-.009-.053-.01-.108-.022-.16a.594.594,0,0,0-1.172.143Z" transform="translate(-229.597 -129.413)" fill="#fff" stroke="#fff" stroke-width="0.2"/>
      <path id="Path_85" data-name="Path 85" d="M83.2,135.246c0-.259,0-.518,0-.777a.992.992,0,0,1,.991-1c.186,0,.372,0,.558,0,.145,0,.237.081.237.2s-.091.195-.238.2h-.523a.6.6,0,0,0-.629.627q0,.76,0,1.52a.6.6,0,0,0,.625.63c.178,0,.356,0,.535,0a.2.2,0,1,1,.007.394,5.909,5.909,0,0,1-.719-.019.968.968,0,0,1-.843-.957c0-.271,0-.541,0-.812Z" transform="translate(-80.622 -129.323)" fill="#fff" stroke="#fff" stroke-width="0.2"/>
    </g>
  </g>
</svg>
