<svg xmlns="http://www.w3.org/2000/svg" width="13.072" height="12.35" viewBox="0 0 13.072 12.35">
  <g id="announcement" transform="translate(1.1 1.175)">
    <g id="Path_59" data-name="Path 59" fill="#fff">
      <path d="M 9.106158256530762 11.0873498916626 L 9.030838966369629 11.04310989379883 L 8.728288650512695 10.86540985107422 L 3.273968696594238 7.663460731506348 L 3.273968696594238 7.824769973754883 L 3.273968696594238 8.026599884033203 L 3.273968696594238 8.076600074768066 L 3.223968744277954 8.076600074768066 L 3.022758722305298 8.076600074768066 L 0.4081087112426758 8.076600074768066 L 0.2068987041711807 8.076600074768066 L 0.1568986922502518 8.076600074768066 L 0.1568986922502518 8.026599884033203 L 0.1568986922502518 7.824769973754883 L 0.1568986922502518 7.17126989364624 L -0.1955212950706482 7.17126989364624 C -0.4059693813323975 7.17126989364624 -0.6054297685623169 7.094387054443359 -0.7624803781509399 6.953739166259766 L -0.7634813189506531 6.954740047454834 L -0.7992013096809387 6.91963005065918 C -0.9609313011169434 6.757400035858154 -1.050001263618469 6.542419910430908 -1.050001263618469 6.314300060272217 L -1.050001263618469 3.685699939727783 C -1.050001263618469 3.457580089569092 -0.9609313011169434 3.242599964141846 -0.7992013096809387 3.08036994934082 C -0.6374412775039673 2.918100118637085 -0.4230512976646423 2.82873010635376 -0.1955212950706482 2.82873010635376 L 0.1568986922502518 2.82873010635376 L 0.1568986922502518 2.175600051879883 L 0.1568986922502518 1.973760008811951 L 0.1568986922502518 1.923760056495667 L 0.2068987041711807 1.923760056495667 L 0.4081087112426758 1.923760056495667 L 3.022758722305298 1.923760056495667 L 3.223968744277954 1.923760056495667 L 3.273968696594238 1.923760056495667 L 3.273968696594238 1.973760008811951 L 3.273968696594238 2.175600051879883 L 3.273968696594238 2.3423171043396 L 8.728268623352051 -0.8650299906730652 L 9.03079891204834 -1.043089985847473 L 9.106158256530762 -1.08745002746582 L 9.106158256530762 -1 L 9.106158256530762 -0.6486200094223022 L 9.106158256530762 10.6493501663208 L 9.106158256530762 11 L 9.106158256530762 11.0873498916626 Z M 3.273968696594238 7.082042217254639 L 8.604098320007324 10.21064567565918 L 8.604098320007324 -0.2101968377828598 L 3.273968696594238 2.924148797988892 L 3.273968696594238 7.082042217254639 Z M 0.6593186855316162 7.572929859161377 L 2.771548748016357 7.572929859161377 L 2.771548748016357 2.427429914474487 L 0.6593186855316162 2.427429914474487 L 0.6593186855316162 2.878730058670044 L 0.6593186855316162 3.080559968948364 L 0.6593186855316162 6.919439792633057 L 0.6593186855316162 7.121270179748535 L 0.6593186855316162 7.572929859161377 Z M -0.4287512898445129 6.578799724578857 C -0.3652428686618805 6.63569164276123 -0.2812102437019348 6.667970180511475 -0.195161297917366 6.667970180511475 L 0.1572687029838562 6.667970180511475 L 0.1572687029838562 3.332760095596313 L -0.195161297917366 3.332760095596313 C -0.2872312963008881 3.332760095596313 -0.3776612877845764 3.370690107345581 -0.4432513117790222 3.43681001663208 C -0.5093513131141663 3.503119945526123 -0.5472112894058228 3.593940019607544 -0.5472112894058228 3.686069965362549 L -0.5472112894058228 6.31466007232666 C -0.5472112894058228 6.407129764556885 -0.5093812942504883 6.497910022735596 -0.4434312880039215 6.563739776611328 L -0.4287512898445129 6.578390121459961 L -0.4287512898445129 6.578799724578857 Z M 9.257728576660156 7.673299789428711 L 9.207728385925293 7.673299789428711 L 9.207728385925293 7.623300075531006 L 9.207728385925293 7.219629764556885 L 9.207728385925293 7.16963005065918 L 9.257728576660156 7.16963005065918 C 9.83561897277832 7.16963005065918 10.37878894805908 6.944220066070557 10.78718852996826 6.534930229187012 C 11.19522857666016 6.125259876251221 11.41995906829834 5.580329895019531 11.41995906829834 5.000549793243408 C 11.41995906829834 4.421110153198242 11.19509887695312 3.876440048217773 10.78680896759033 3.466880083084106 C 10.37832832336426 3.057130098342896 9.835298538208008 2.831470012664795 9.257728576660156 2.831470012664795 L 9.207728385925293 2.831470012664795 L 9.207728385925293 2.781470060348511 L 9.207728385925293 2.377799987792969 L 9.207728385925293 2.327800035476685 L 9.257728576660156 2.327800035476685 C 9.969318389892578 2.327800035476685 10.63860893249512 2.605839967727661 11.14229869842529 3.110699892044067 C 11.64534854888916 3.615299940109253 11.92237854003906 4.286459922790527 11.92237854003906 5.000549793243408 C 11.92237854003906 5.713769912719727 11.64534854888916 6.384659767150879 11.14231872558594 6.889639854431152 C 10.63814830780029 7.395390033721924 9.96924877166748 7.673299789428711 9.257728576660156 7.673299789428711 Z M 9.257728576660156 6.866330146789551 L 9.207728385925293 6.866330146789551 L 9.207728385925293 6.816329956054688 L 9.207728385925293 6.412660121917725 L 9.207728385925293 6.362659931182861 L 9.257728576660156 6.362659931182861 C 9.621278762817383 6.362659931182861 9.962228775024414 6.221280097961426 10.2177791595459 5.964570045471191 C 10.47488880157471 5.707039833068848 10.61584854125977 5.364950180053711 10.61584854125977 5.000179767608643 C 10.61584854125977 4.635409832000732 10.47488880157471 4.293320178985596 10.21892833709717 4.036940097808838 C 9.962228775024414 3.77908992767334 9.621278762817383 3.637710094451904 9.257728576660156 3.637710094451904 L 9.207728385925293 3.637710094451904 L 9.207728385925293 3.587709903717041 L 9.207728385925293 3.184040069580078 L 9.257728576660156 3.184040069580078 L 9.257728576660156 3.134769916534424 C 9.753539085388184 3.134769916534424 10.22035884857178 3.328919887542725 10.57219886779785 3.681459903717041 C 10.9243688583374 4.034719944000244 11.11789894104004 4.502920150756836 11.11789894104004 5.000549793243408 C 11.11789894104004 5.497789859771729 10.9243688583374 5.965980052947998 10.57296848297119 6.318870067596436 C 10.22074890136719 6.672170162200928 9.753918647766113 6.866330146789551 9.257728576660156 6.866330146789551 Z M 9.257369041442871 6.058990001678467 L 9.207368850708008 6.058990001678467 L 9.207368850708008 6.008989810943604 L 9.207368850708008 5.605319976806641 L 9.207368850708008 5.555319786071777 L 9.257369041442871 5.555319786071777 C 9.406048774719238 5.555319786071777 9.544919013977051 5.497970104217529 9.648378372192383 5.393839836120605 C 9.753448486328125 5.28879976272583 9.810638427734375 5.149429798126221 9.810638427734375 5.000179767608643 C 9.810638427734375 4.85200023651123 9.75303840637207 4.712600231170654 9.648438453674316 4.607679843902588 L 9.633849143981934 4.593050003051758 L 9.633849143981934 4.59242057800293 C 9.532095909118652 4.497223854064941 9.39920711517334 4.44504976272583 9.257369041442871 4.44504976272583 L 9.207368850708008 4.44504976272583 L 9.207368850708008 4.395050048828125 L 9.207368850708008 3.991379976272583 L 9.207368850708008 3.870670080184937 L 9.278651237487793 3.941943883895874 C 9.535346984863281 3.946945905685425 9.777237892150879 4.043863773345947 9.966914176940918 4.217146873474121 L 9.967739105224609 4.216300010681152 L 10.00393867492676 4.251880168914795 C 10.20327854156494 4.45182991027832 10.31305885314941 4.71757984161377 10.31305885314941 5.000179767608643 C 10.31305885314941 5.281909942626953 10.20328903198242 5.547389984130859 10.00396823883057 5.747719764709473 C 9.803468704223633 5.948850154876709 9.538718223571777 6.058990001678467 9.257369041442871 6.058990001678467 Z" stroke="none"/>
      <path d="M 9.056159019470215 -1 L 3.223968505859375 2.429719924926758 L 3.223968505859375 1.973759651184082 L 0.2068986892700195 1.973759651184082 L 0.2068986892700195 2.878729820251465 L -0.195521354675293 2.878729820251465 C -0.4171409606933594 2.878729820251465 -0.6183509826660156 2.969769954681396 -0.7637910842895508 3.115670204162598 C -0.9092416763305664 3.261559963226318 -1.000000953674316 3.463759899139404 -1.000000953674316 3.685699939727783 L -1.000000953674316 6.314300060272217 C -1.000000953674316 6.536609649658203 -0.9092416763305664 6.738440036773682 -0.7637910842895508 6.884329795837402 L -0.7634315490722656 6.883970260620117 C -0.6172609329223633 7.030590057373047 -0.4156913757324219 7.121270179748535 -0.195521354675293 7.121270179748535 L 0.2068986892700195 7.121270179748535 L 0.2068986892700195 8.026599884033203 L 3.223968505859375 8.026599884033203 L 3.223968505859375 7.576129913330078 L 9.056159019470215 11 L 9.056159019470215 -1 M 8.654098510742188 10.29796981811523 L 3.223968505859375 7.11067008972168 L 3.223968505859375 2.895549774169922 L 8.654098510742188 -0.2975997924804688 L 8.654098510742188 10.29796981811523 M 2.821538925170898 7.62293004989624 L 0.609318733215332 7.62293004989624 L 0.609318733215332 2.377429962158203 L 2.821538925170898 2.377799987792969 L 2.821538925170898 7.62293004989624 M 0.2072687149047852 6.71796989440918 L -0.1951608657836914 6.71796989440918 C -0.3059711456298828 6.71796989440918 -0.4069414138793945 6.672630310058594 -0.4787511825561523 6.60023021697998 L -0.4787511825561523 6.599129676818848 C -0.5516510009765625 6.526370048522949 -0.5972108840942383 6.425089836120605 -0.5972108840942383 6.31466007232666 L -0.5972108840942383 3.686069965362549 C -0.5972108840942383 3.575640201568604 -0.5512809753417969 3.47435998916626 -0.4787511825561523 3.401599884033203 C -0.4062108993530273 3.328470230102539 -0.305241584777832 3.282760143280029 -0.1951608657836914 3.282760143280029 L 0.2072687149047852 3.282760143280029 L 0.2072687149047852 6.71796989440918 M 9.257728576660156 2.377799987792969 L 9.257728576660156 2.781469821929932 C 9.868659019470215 2.781469821929932 10.42198848724365 3.030099868774414 10.8222188949585 3.431580066680908 C 11.22208881378174 3.832689762115479 11.46995830535889 4.387730121612549 11.46995830535889 5.000549793243408 C 11.46995830535889 5.613729953765869 11.2224588394165 6.168769836425781 10.82257843017578 6.570250034332275 C 10.42234897613525 6.971360206604004 9.8690185546875 7.219630241394043 9.257728576660156 7.219630241394043 L 9.257728576660156 7.623300075531006 C 9.979098320007324 7.623300075531006 10.63303852081299 7.329689979553223 11.10580825805664 6.855449676513672 L 11.10689830780029 6.854350090026855 C 11.57930850982666 6.380109786987305 11.8723783493042 5.72415018081665 11.8723783493042 5.000549793243408 C 11.8723783493042 4.276579856872559 11.57966899871826 3.620250225067139 11.10689830780029 3.146009922027588 C 10.63376903533936 2.671780109405518 9.97946834564209 2.377799987792969 9.257728576660156 2.377799987792969 M 9.257728576660156 3.184040069580078 L 9.257728576660156 3.587709903717041 C 9.647398948669434 3.587709903717041 9.999518394470215 3.745669841766357 10.25321865081787 4.0005202293396 L 10.25430870056152 4.001609802246094 C 10.50837898254395 4.256100177764893 10.66584873199463 4.610040187835693 10.66584873199463 5.000179767608643 C 10.66584873199463 5.391049861907959 10.50837898254395 5.744259834289551 10.25430870056152 5.99875020980835 L 10.25321865081787 5.999849796295166 C 9.999518394470215 6.25469970703125 9.647028923034668 6.412659645080566 9.257728576660156 6.412659645080566 L 9.257728576660156 6.816329956054688 C 9.756748199462891 6.816329956054688 10.20910835266113 6.613029956817627 10.53680896759033 6.284319877624512 L 10.53753852844238 6.283590316772461 C 10.8652286529541 5.95451021194458 11.06789875030518 5.501110076904297 11.06789875030518 5.000549793243408 C 11.06789875030518 4.500349998474121 10.8652286529541 4.046219825744629 10.53753852844238 3.717510223388672 L 10.53680896759033 3.716780185699463 C 10.20874881744385 3.388070106506348 9.756748199462891 3.184770107269287 9.257728576660156 3.184770107269287 L 9.257728576660156 3.184040069580078 M 9.257369041442871 3.991380214691162 L 9.257369041442871 4.395050048828125 C 9.424318313598633 4.395050048828125 9.575588226318359 4.462319850921631 9.68384838104248 4.571280002593994 L 9.68384838104248 4.572380065917969 C 9.792839050292969 4.681709766387939 9.860638618469238 4.833449840545654 9.860638618469238 5.000179767608643 C 9.860638618469238 5.16765022277832 9.79356861114502 5.319389820098877 9.684938430786133 5.427979946136475 L 9.68384838104248 5.429080009460449 C 9.575588226318359 5.538040161132812 9.424318313598633 5.605319976806641 9.257369041442871 5.605319976806641 L 9.257369041442871 6.008990287780762 C 9.534029006958008 6.008990287780762 9.785549163818359 5.895999908447266 9.967438697814941 5.713550090789795 L 9.968528747558594 5.71245002746582 C 10.15005874633789 5.53000020980835 10.26305866241455 5.277699947357178 10.26305866241455 5.000179767608643 C 10.26305866241455 4.721930027008057 10.15042877197266 4.469639778137207 9.968528747558594 4.287179946899414 L 9.968168258666992 4.28754997253418 C 9.78627872467041 4.105090141296387 9.534399032592773 3.991740226745605 9.257728576660156 3.991740226745605 L 9.257369041442871 3.991380214691162 M 9.156158447265625 -1.17488956451416 L 9.156158447265625 11.17471027374268 L 3.323968887329102 7.750797271728516 L 3.323968887329102 8.12660026550293 L 0.106898307800293 8.12660026550293 L 0.106898307800293 7.221270084381104 L -0.195521354675293 7.221270084381104 C -0.4025745391845703 7.221270084381104 -0.5995349884033203 7.151027679443359 -0.759735107421875 7.021694183349609 L -0.7635412216186523 7.025500297546387 L -0.8346109390258789 6.954930305480957 C -1.005751609802246 6.783279895782471 -1.100001335144043 6.555759906768799 -1.100001335144043 6.314300060272217 L -1.100001335144043 3.685699939727783 C -1.100001335144043 3.444240093231201 -1.005751609802246 3.216720104217529 -0.8346109390258789 3.045070171356201 C -0.6634016036987305 2.87332010269165 -0.4364309310913086 2.778729915618896 -0.195521354675293 2.778729915618896 L 0.106898307800293 2.778729915618896 L 0.106898307800293 1.873760223388672 L 3.323968887329102 1.873760223388672 L 3.323968887329102 2.254908084869385 L 9.156158447265625 -1.17488956451416 Z M 8.554098129272461 10.12332153320312 L 8.554098129272461 -0.1227874755859375 L 3.323968887329102 2.95275354385376 L 3.323968887329102 7.053414344787598 L 8.554098129272461 10.12332153320312 Z M 2.721538543701172 2.477429866790771 L 0.7093191146850586 2.477429866790771 L 0.7093191146850586 7.522930145263672 L 2.721538543701172 7.522930145263672 L 2.721538543701172 2.477429866790771 Z M 0.1072683334350586 3.382760047912598 L -0.1951608657836914 3.382760047912598 C -0.2740011215209961 3.382760047912598 -0.3514814376831055 3.415299892425537 -0.4077510833740234 3.472020149230957 C -0.4646711349487305 3.529119968414307 -0.4972114562988281 3.607069969177246 -0.4972114562988281 3.686069965362549 L -0.4972114562988281 6.31466007232666 C -0.4972114562988281 6.39394998550415 -0.4647312164306641 6.471829891204834 -0.408111572265625 6.528349876403809 L -0.3910846710205078 6.545341491699219 C -0.3372211456298828 6.591733932495117 -0.2670221328735352 6.617969989776611 -0.1951608657836914 6.617969989776611 L 0.1072683334350586 6.617969989776611 L 0.1072683334350586 3.382760047912598 Z M 9.15772819519043 2.2778000831604 L 9.257728576660156 2.2778000831604 C 9.982698440551758 2.2778000831604 10.66455841064453 2.561049938201904 11.17768859863281 3.075379848480225 C 11.69015884399414 3.589449882507324 11.97237873077393 4.273139953613281 11.97237873077393 5.000549793243408 C 11.97237873077393 5.727089881896973 11.6901683807373 6.410510063171387 11.17774868011475 6.924920082092285 C 10.66410827636719 7.440159797668457 9.98262882232666 7.723299980163574 9.257728576660156 7.723299980163574 L 9.15772819519043 7.723299980163574 L 9.15772819519043 7.119629859924316 L 9.257728576660156 7.119629859924316 C 9.822248458862305 7.119629859924316 10.35284900665283 6.899439811706543 10.75178909301758 6.499619960784912 C 11.15039825439453 6.099410057067871 11.36995887756348 5.567009925842285 11.36995887756348 5.000549793243408 C 11.36995887756348 4.434430122375488 11.15027904510498 3.902299880981445 10.75139904022217 3.502180099487305 C 10.35236835479736 3.10191011428833 9.821908950805664 2.881470203399658 9.257728576660156 2.881470203399658 L 9.15772819519043 2.881470203399658 L 9.15772819519043 2.2778000831604 Z M 9.257728576660156 3.084770202636719 C 9.766908645629883 3.084770202636719 10.24629878997803 3.284130096435547 10.60758876800537 3.646140098571777 C 10.96918869018555 4.008860111236572 11.1678991317749 4.489590167999268 11.1678991317749 5.000549793243408 C 11.1678991317749 5.511099815368652 10.96919822692871 5.991819858551025 10.6083984375 6.35414981842041 C 10.24670886993408 6.716949939727783 9.767309188842773 6.916330337524414 9.257728576660156 6.916330337524414 L 9.15772819519043 6.916330337524414 L 9.15772819519043 6.312660217285156 L 9.257728576660156 6.312660217285156 C 9.607878684997559 6.312660217285156 9.936248779296875 6.176509857177734 10.18234825134277 5.929299831390381 C 10.43007850646973 5.681149959564209 10.5658483505249 5.35161018371582 10.5658483505249 5.000179767608643 C 10.5658483505249 4.648749828338623 10.43007850646973 4.319210052490234 10.18353843688965 4.072259902954102 C 9.936248779296875 3.823860168457031 9.607878684997559 3.687709808349609 9.257728576660156 3.687709808349609 L 9.15772819519043 3.687709808349609 L 9.15772819519043 3.184040069580078 L 9.257728576660156 3.184040069580078 L 9.257728576660156 3.084770202636719 Z M 9.157368659973145 3.749959945678711 L 9.299941062927246 3.892532348632812 C 9.545166969299316 3.90174388885498 9.776529312133789 3.991148948669434 9.964134216308594 4.148292541503906 L 9.96729850769043 4.145040035247803 L 10.03934860229492 4.216579914093018 C 10.24809837341309 4.425970077514648 10.36305904388428 4.704259872436523 10.36305904388428 5.000179767608643 C 10.36305904388428 5.295219898223877 10.24811840057373 5.573219776153564 10.03941917419434 5.782979965209961 C 9.829428672790527 5.993629932403564 9.552099227905273 6.108989715576172 9.257369041442871 6.108989715576172 L 9.157368659973145 6.108989715576172 L 9.157368659973145 5.505320072174072 L 9.257369041442871 5.505320072174072 C 9.39263916015625 5.505320072174072 9.518898963928223 5.45320987701416 9.612908363342285 5.35860013961792 C 9.708648681640625 5.262889862060547 9.760639190673828 5.136069774627686 9.760639190673828 5.000179767608643 C 9.760639190673828 4.865320205688477 9.708218574523926 4.738470077514648 9.613028526306152 4.642980098724365 L 9.592031478881836 4.621918201446533 C 9.5006103515625 4.539891719818115 9.38286304473877 4.495049953460693 9.257369041442871 4.495049953460693 L 9.157368659973145 4.495049953460693 L 9.157368659973145 3.749959945678711 Z" stroke="none" fill="#fff"/>
    </g>
  </g>
</svg>
