<svg xmlns="http://www.w3.org/2000/svg" width="7.655" height="11.867" viewBox="0 0 7.655 11.867">
  <g id="course_selection" data-name="course selection" transform="translate(0.003)">
    <g id="Layer_1" data-name="Layer 1" transform="translate(-0.003)">
      <path id="Path_68" data-name="Path 68" d="M2.663,0c.146.031.3.055.439.1a2.438,2.438,0,0,1,1.762,2.3.349.349,0,1,1-.7.013A1.737,1.737,0,0,0,.727,2.1a2.3,2.3,0,0,0-.033.333.353.353,0,0,1-.355.352A.352.352,0,0,1,0,2.415,2.447,2.447,0,0,1,2.1.023.938.938,0,0,0,2.2,0Z" transform="translate(0.003)" fill="#fff"/>
      <path id="Path_69" data-name="Path 69" d="M4.837,48.517a1.054,1.054,0,0,1,1.377.66,3.635,3.635,0,0,1,.588-.005,1,1,0,0,1,.844.967c.008,1.124.017,2.248,0,3.372a2.573,2.573,0,0,1-.755,1.757.416.416,0,0,1-.319.137l-4.8,0a.5.5,0,0,1-.23-.06A2.809,2.809,0,0,1,.024,53.11,3.136,3.136,0,0,1,0,52.74q0-.916,0-1.831a1.042,1.042,0,0,1,1.071-1.068h.32v-.137q0-1.86,0-3.72a1.041,1.041,0,0,1,2.082-.037c.008.575,0,1.151,0,1.726V47.8C4.242,47.715,4.564,47.885,4.837,48.517Zm-3.446,2.02h-.33A.348.348,0,0,0,.7,50.9c0,.66-.017,1.321.005,1.982a2.082,2.082,0,0,0,1.053,1.783.3.3,0,0,0,.151.041q2.229,0,4.46,0a.219.219,0,0,0,.15-.076,1.93,1.93,0,0,0,.436-1.23c0-1.058,0-2.116,0-3.174a.349.349,0,1,0-.695,0v.65a.338.338,0,0,1-.2.326.344.344,0,0,1-.494-.322c0-.452,0-.9,0-1.355a.348.348,0,1,0-.695-.006c0,.455,0,.911,0,1.367a.346.346,0,0,1-.685.077.622.622,0,0,1-.009-.138q0-1,0-2a.348.348,0,0,0-.341-.364.353.353,0,0,0-.353.364v2.051a.347.347,0,0,1-.685.094.687.687,0,0,1-.01-.15V46.075c0-.042,0-.085,0-.127a.347.347,0,0,0-.473-.3.36.36,0,0,0-.221.372v5.966a.35.35,0,1,1-.7,0v-.6Z" transform="translate(0 -43.538)" fill="#fff"/>
    </g>
  </g>
</svg>
