<svg xmlns="http://www.w3.org/2000/svg" width="12.068" height="12.068" viewBox="0 0 12.068 12.068">
  <g id="FAQ" transform="translate(-1 -1)">
    <path id="Path_4" data-name="Path 4" d="M11.481,6.848a2.068,2.068,0,0,1,1.09.126,2.026,2.026,0,0,1,.867.667,1.962,1.962,0,0,1,.168,2.086,2.009,2.009,0,0,1-.751.793c-.085.051-.177.1-.251.136l-.059.03a1.287,1.287,0,0,0-.193.117.221.221,0,0,0-.066.073.3.3,0,0,0-.025.14V11.6a.279.279,0,0,1-.278.278h-.371a.278.278,0,0,1-.279-.278v-.582a1.22,1.22,0,0,1,.125-.56,1.143,1.143,0,0,1,.32-.383,2.162,2.162,0,0,1,.335-.208l.084-.044c.068-.035.123-.064.181-.1a1.08,1.08,0,0,0,.4-.426,1.034,1.034,0,0,0-.089-1.1,1.1,1.1,0,0,0-.47-.361,1.14,1.14,0,0,0-.6-.069,1.122,1.122,0,0,0-.547.246,1.078,1.078,0,0,0-.208.231.348.348,0,0,1-.386.161l-.352-.117a.25.25,0,0,1-.158-.345,2,2,0,0,1,.51-.643A2.05,2.05,0,0,1,11.481,6.848Z" transform="translate(-4.794 -3.121)" fill="#fff"/>
    <path id="Path_5" data-name="Path 5" d="M13.111,19.608a.232.232,0,0,1,.232-.232h.3a.232.232,0,0,1,.232.232v.3a.232.232,0,0,1-.232.232h-.3a.232.232,0,0,1-.232-.232Z" transform="translate(-6.49 -9.847)" fill="#fff"/>
    <path id="Path_6" data-name="Path 6" d="M7.034,1a6.034,6.034,0,1,0,6.034,6.034A6.034,6.034,0,0,0,7.034,1ZM1.928,7.034A5.106,5.106,0,1,1,7.034,12.14,5.106,5.106,0,0,1,1.928,7.034Z" fill="#fff" fill-rule="evenodd"/>
  </g>
</svg>
