<svg xmlns="http://www.w3.org/2000/svg" width="12.116" height="7.335" viewBox="0 0 12.116 7.335">
  <path id="client" d="M74.4,0c.1.03.2.056.3.091a1.549,1.549,0,0,1,1.051,1.445A2.725,2.725,0,0,1,75.6,2.88L75.754,3a2.468,2.468,0,0,1,.928,1.9c.006.2,0,.392,0,.588,0,.285-.143.416-.436.417H73.121V6.9c0,.3-.134.433-.438.433H68.568c-.305,0-.435-.133-.437-.434V5.91H65.057c-.375,0-.5-.115-.487-.489a6.927,6.927,0,0,1,.064-1.009,2.3,2.3,0,0,1,.877-1.422l.131-.106a2.918,2.918,0,0,1-.14-1.489A1.548,1.548,0,0,1,66.714.04c.048-.011.089-.027.133-.04h.428c.038.012.077.028.115.036a1.542,1.542,0,0,1,1.229,1.338,2.9,2.9,0,0,1-.133,1.5l.57.533c0-.2-.008-.369,0-.539a1.574,1.574,0,0,1,3.143.162v.376l.567-.535a2.729,2.729,0,0,1-.147-1.354A1.392,1.392,0,0,1,73.227.345,4.443,4.443,0,0,1,73.976,0ZM68.849,6.61H72.4a1.827,1.827,0,0,0-.694-1.659.17.17,0,0,0-.232-.011,1.517,1.517,0,0,1-1.7,0,.179.179,0,0,0-.246.019A1.845,1.845,0,0,0,68.849,6.61ZM75.96,5.2a1.82,1.82,0,0,0-.691-1.673.162.162,0,0,0-.218-.018,1.527,1.527,0,0,1-1.725,0,.15.15,0,0,0-.2.01,1.909,1.909,0,0,0-.609.816.394.394,0,0,0,.078.509.64.64,0,0,1,.153.217A.234.234,0,0,0,73,5.2c.925,0,1.851,0,2.776,0Zm-10.673,0H65.5c.878,0,1.758-.006,2.633,0,.2,0,.339-.027.425-.222.039-.09.129-.156.176-.244a.355.355,0,0,0,.05-.221,1.762,1.762,0,0,0-.632-.983.18.18,0,0,0-.247-.015A1.519,1.519,0,0,1,66.21,3.51a.174.174,0,0,0-.232.018A1.824,1.824,0,0,0,65.287,5.2Zm4.477-1.883c0,.107,0,.214,0,.32a.861.861,0,0,0,1.721-.008c.005-.213.006-.428,0-.641a.861.861,0,0,0-1.721.008c0,.106,0,.213,0,.32Zm3.564-1.432h0c0,.118,0,.238,0,.356a.86.86,0,0,0,1.719-.011c.008-.219.007-.439,0-.658a.861.861,0,0,0-1.721-.007c0,.106,0,.213,0,.32Zm-5.406,0c0-.113,0-.226,0-.338a.86.86,0,0,0-1.72.005c-.007.225-.007.451,0,.676a.86.86,0,0,0,1.719.013c0-.117,0-.236,0-.355Z" transform="translate(-64.569)" fill="#fff"/>
</svg>
