<svg xmlns="http://www.w3.org/2000/svg" width="12.12" height="11.437" viewBox="0 0 12.12 11.437">
  <g id="contact_us" data-name="contact us" transform="translate(0 0.002)">
    <g id="Layer_1" data-name="Layer 1" transform="translate(0 -0.002)">
      <path id="Path_61" data-name="Path 61" d="M0,5.431c.019-.08.035-.161.057-.241A1.659,1.659,0,0,1,1.621,3.966h.136A4.3,4.3,0,0,1,3.557.8,4.146,4.146,0,0,1,6.07,0,4.189,4.189,0,0,1,8.981,1.143,4.261,4.261,0,0,1,10.355,3.95c.163.02.316.028.467.059a1.64,1.64,0,0,1,1.291,1.566,11.37,11.37,0,0,1-.026,1.314,1.613,1.613,0,0,1-1.5,1.389c-.193.01-.386.007-.579.006a.368.368,0,0,1-.4-.408V4.344a3.4,3.4,0,0,0-.786-2.256A3.388,3.388,0,0,0,5.157.883a3.408,3.408,0,0,0-2.6,2.855,3.446,3.446,0,0,0-.048.636c0,1.154,0,2.308,0,3.461,0,.29-.09.416-.373.449a1.784,1.784,0,0,1-2-1.015A3.714,3.714,0,0,1,0,6.831Z" transform="translate(0 0.002)" fill="#fff"/>
      <path id="Path_62" data-name="Path 62" d="M155.026,315.092c-.158,0-.316,0-.473,0a.759.759,0,0,1-.02-1.515c.327-.01.654-.01.98,0a.759.759,0,0,1-.015,1.514C155.342,315.1,155.184,315.092,155.026,315.092Z" transform="translate(-148.964 -303.656)" fill="#fff"/>
      <path id="Path_63" data-name="Path 63" d="M53.649,278.014v.407a2.558,2.558,0,0,1-2.809-2.141h.407A2.2,2.2,0,0,0,53.649,278.014Z" transform="translate(-49.233 -267.545)" fill="#fff"/>
    </g>
  </g>
</svg>
