<svg xmlns="http://www.w3.org/2000/svg" width="11.436" height="11.437" viewBox="0 0 11.436 11.437">
  <g id="dashbord" transform="translate(0 0.03)">
    <g id="Layer_1" data-name="Layer 1" transform="translate(0 -0.03)">
      <path id="Path_64" data-name="Path 64" d="M282.455,5.934a.146.146,0,0,0-.016.029.837.837,0,0,1-.882.68h-3.473a.84.84,0,0,1-.872-.873c0-.361,0-.722,0-1.083V.979a.874.874,0,0,1,.709-1.009h3.842a.857.857,0,0,1,.5.309,3.14,3.14,0,0,1,.193.407Zm-.715-2.628V.873c0-.159-.03-.188-.189-.188h-3.438c-.155,0-.186.033-.186.192V5.733c0,.163.033.2.2.2h3.427c.156,0,.19-.033.191-.188Z" transform="translate(-271.019 0.03)" fill="#fff"/>
      <path id="Path_65" data-name="Path 65" d="M0,213.9c.017-.053.032-.107.051-.159a.822.822,0,0,1,.781-.548q1.787-.008,3.574,0a.83.83,0,0,1,.839.882q0,1.423,0,2.847v1.921a.877.877,0,0,1-.709,1.021H.715a.874.874,0,0,1-.612-.438,2.632,2.632,0,0,1-.1-.255Zm.715,2.626v2.422c0,.175.025.2.2.2H4.329c.17,0,.2-.029.2-.2v-4.834c0-.179-.029-.208-.206-.208H.918c-.177,0-.2.027-.2.209Z" transform="translate(0 -208.428)" fill="#fff"/>
      <path id="Path_66" data-name="Path 66" d="M4.534,0a2.418,2.418,0,0,1,.413.207.771.771,0,0,1,.3.646c0,.7.005,1.407,0,2.11a.826.826,0,0,1-.849.849q-1.769.008-3.539,0A.828.828,0,0,1,.02,3.156.454.454,0,0,0,0,3.1V.692C.014.655.028.618.041.581a.809.809,0,0,1,.436-.5C.547.051.62.027.692,0ZM2.62,3.1H4.338c.156,0,.19-.034.19-.191V.9c0-.151-.034-.185-.182-.185H.9C.747.715.715.747.715.9V2.907c0,.162.031.192.2.193Z" transform="translate(0 0.001)" fill="#fff"/>
      <path id="Path_67" data-name="Path 67" d="M277.8,345.053a2.146,2.146,0,0,1-.239-.088.8.8,0,0,1-.468-.743c-.007-.718-.01-1.437,0-2.155a.824.824,0,0,1,.859-.826c.856,0,1.712,0,2.569,0h.916a.836.836,0,0,1,.882.68.135.135,0,0,0,.016.029v2.39a2.778,2.778,0,0,1-.179.388.836.836,0,0,1-.536.327Zm1.911-.715h1.719c.16,0,.189-.029.189-.188v-2.009c0-.155-.033-.188-.191-.188H278c-.164,0-.2.033-.2.2v2c0,.161.032.192.2.192Z" transform="translate(-270.901 -333.616)" fill="#fff"/>
    </g>
  </g>
</svg>
