<svg xmlns="http://www.w3.org/2000/svg" width="12" height="12" viewBox="0 0 12 12">
  <path id="feedback" d="M7.25,9.575A1.387,1.387,0,0,1,8.6,11v.948l0,.068C8.409,13.355,7.263,14,5.34,14s-3.08-.638-3.331-1.965L2,11.943V11a1.387,1.387,0,0,1,1.35-1.42Zm0,.947H3.35A.462.462,0,0,0,2.9,11v.9c.168.758.93,1.161,2.44,1.161s2.238-.4,2.36-1.146V11A.462.462,0,0,0,7.25,10.522Zm-1.95-6A2.157,2.157,0,0,1,7.4,6.735,2.157,2.157,0,0,1,5.3,8.944,2.157,2.157,0,0,1,3.2,6.735,2.157,2.157,0,0,1,5.3,4.525ZM12.65,2A1.387,1.387,0,0,1,14,3.42V5.63a1.387,1.387,0,0,1-1.35,1.42h-.873L10.477,8.4A.724.724,0,0,1,9.416,8.4.811.811,0,0,1,9.2,7.841v-.8A1.4,1.4,0,0,1,8,5.63V3.42A1.387,1.387,0,0,1,9.35,2ZM5.3,5.472A1.264,1.264,0,0,0,5.3,8a1.264,1.264,0,0,0,0-2.525Zm7.35-2.525H9.35a.462.462,0,0,0-.45.473V5.63a.462.462,0,0,0,.45.473H10.1v1.36L11.407,6.1H12.65a.462.462,0,0,0,.45-.473V3.42A.462.462,0,0,0,12.65,2.947Z" transform="translate(-2 -2)" fill="#fff"/>
</svg>
