<svg xmlns="http://www.w3.org/2000/svg" width="10.47" height="15.755" viewBox="0 0 10.47 15.755">
  <g id="help" transform="translate(-98.373 -18.058)" fill="none">
    <path d="M106.47,30.912v.527a1.32,1.32,0,0,1-1.319,1.319h-.29a1.319,1.319,0,0,1-2.584,0h-.29a1.32,1.32,0,0,1-1.319-1.319v-.527a.792.792,0,0,1,.791-.791h4.219A.792.792,0,0,1,106.47,30.912Zm.749-11.463a5.277,5.277,0,1,0-7.138,7.773,1.753,1.753,0,0,1,.587,1.317.792.792,0,0,0,.791.791h4.219a.792.792,0,0,0,.791-.791,1.758,1.758,0,0,1,.589-1.32,5.284,5.284,0,0,0,.16-7.77Z" stroke="none"/>
    <path d="M 103.5692138671875 33.01233673095703 C 103.8145980834961 33.01233673095703 104.0283355712891 32.83782577514648 104.0774383544922 32.59739685058594 L 104.2081298828125 31.95747566223145 L 105.1504440307617 31.95747566223145 C 105.4365463256836 31.95715713500977 105.669563293457 31.72413635253906 105.6698837280273 31.43892669677734 L 105.6698837280273 30.92037582397461 L 101.4682693481445 30.92037582397461 L 101.4682693481445 31.43802642822266 C 101.4685897827148 31.7241268157959 101.7016143798828 31.95715713500977 101.98681640625 31.95747566223145 L 102.9302978515625 31.95747566223145 L 103.0609893798828 32.59739685058594 C 103.1100845336914 32.83782577514648 103.3238296508789 33.01233673095703 103.5692138671875 33.01233673095703 M 105.6698760986328 28.52924537658691 C 105.6706390380859 27.80063247680664 105.9827041625977 27.10566902160645 106.5292434692383 26.6191463470459 C 107.465087890625 25.79180717468262 108.0165786743164 24.6010570526123 108.0423049926758 23.35220718383789 C 108.0679779052734 22.10633850097656 107.5684356689453 20.89664077758789 106.671516418457 20.03180313110352 C 105.8443222045898 19.27449226379395 104.7720642089844 18.8575267791748 103.651237487793 18.8575267791748 C 102.4005355834961 18.8575267791748 101.1982879638672 19.38556671142578 100.3527526855469 20.30624580383301 C 98.68409729003906 22.12322425842285 98.80354309082031 24.95834159851074 100.618034362793 26.62870788574219 C 101.159309387207 27.11327362060547 101.4688186645508 27.80656814575195 101.4682846069336 28.52924537658691 L 105.6698760986328 28.52924537658691 M 103.5692138671875 33.81233596801758 C 102.9426193237305 33.81233596801758 102.4025497436523 33.37139511108398 102.2771682739258 32.75747680664062 L 101.98681640625 32.75747680664062 C 101.2589492797852 32.75665664672852 100.6690826416016 32.16680526733398 100.6682662963867 31.43892669677734 L 100.6682662963867 30.91150665283203 C 100.6687698364258 30.47477722167969 101.0226745605469 30.1208667755127 101.4593963623047 30.12037658691406 L 105.6787567138672 30.12037658691406 C 106.1154861450195 30.1208667755127 106.4694061279297 30.47477722167969 106.4698867797852 30.91150665283203 L 106.4698867797852 31.43892669677734 C 106.4690780639648 32.16680526733398 105.8792190551758 32.75665664672852 105.1513442993164 32.75747680664062 L 104.8612594604492 32.75747680664062 C 104.7358779907227 33.37139511108398 104.1958084106445 33.81233596801758 103.5692138671875 33.81233596801758 Z M 105.6787567138672 29.32924652099609 L 101.4593963623047 29.32924652099609 C 101.0226745605469 29.32875633239746 100.6687698364258 28.9748363494873 100.6682662963867 28.53811645507812 C 100.6702728271484 28.03531646728516 100.4563598632812 27.55584716796875 100.0808029174805 27.22151565551758 C 97.93417358398438 25.25010681152344 97.79212951660156 21.91176605224609 99.76353454589844 19.76512718200684 C 101.7349395751953 17.61848449707031 105.0733032226562 17.47643852233887 107.2192230224609 19.44861602783203 L 107.2192230224609 19.44868659973145 C 108.2840728759766 20.47125625610352 108.8725433349609 21.89267539978027 108.8421401977539 23.36868667602539 C 108.8117294311523 24.84469604492188 108.1651840209961 26.24067687988281 107.0591201782227 27.218505859375 C 106.6826782226562 27.55361557006836 106.4681167602539 28.03412628173828 106.4698867797852 28.53811645507812 C 106.4693832397461 28.9748363494873 106.115478515625 29.3287353515625 105.6787567138672 29.32924652099609 Z" stroke="none" fill="#fff"/>
  </g>
</svg>
