<svg id="banner" xmlns="http://www.w3.org/2000/svg" width="12.101" height="12.1" viewBox="0 0 12.101 12.1">
  <g id="Layer_1" data-name="Layer 1" transform="translate(0)">
    <path id="Path_70" data-name="Path 70" d="M12.1.992V11.107a.336.336,0,0,0-.017.054,1.1,1.1,0,0,1-1.115.939q-4.916,0-9.831-.005a1.236,1.236,0,0,1-.511-.115A1.069,1.069,0,0,1,0,10.93V2.174q0-.52,0-1.04a1.106,1.106,0,0,1,.4-.881A1.263,1.263,0,0,1,.993,0H11.108a.316.316,0,0,0,.056.017,1.079,1.079,0,0,1,.687.392A1.248,1.248,0,0,1,12.1.992ZM.555,2.756c0,.045-.006.085-.006.122v8.047a.566.566,0,0,0,.631.627h9.737a.568.568,0,0,0,.636-.633V2.884c0-.042,0-.083-.005-.127Zm.007-.564H11.54c0-.4.012-.793-.005-1.184A.462.462,0,0,0,11.2.592a.934.934,0,0,0-.3-.043q-4.843,0-9.689,0a1.249,1.249,0,0,0-.2.014.5.5,0,0,0-.439.445C.549,1.4.562,1.793.562,2.192Z" transform="translate(0)" fill="#fff"/>
    <path id="Path_71" data-name="Path 71" d="M54.238,119.274H56.9c.266,0,.365.1.365.361v4.23c0,.258-.1.358-.355.358h-5.34c-.262,0-.355-.095-.355-.355v-4.24c0-.258.1-.353.359-.353Zm2.463.556H51.763v3.833H56.7Z" transform="translate(-49.557 -115.423)" fill="#fff"/>
    <path id="Path_72" data-name="Path 72" d="M55.632,307.228H51.615a.8.8,0,0,1-.164-.011.266.266,0,0,1-.209-.254.263.263,0,0,1,.194-.265.629.629,0,0,1,.163-.017H59.68a.646.646,0,0,1,.152.014.264.264,0,0,1,.2.269.269.269,0,0,1-.221.256.861.861,0,0,1-.153.008Z" transform="translate(-49.587 -296.78)" fill="#fff"/>
    <path id="Path_73" data-name="Path 73" d="M256.652,153.272c.248,0,.5,0,.743,0a.517.517,0,0,1,.215.046.238.238,0,0,1,.128.268.247.247,0,0,1-.2.218.815.815,0,0,1-.163.017q-.726,0-1.453,0c-.236,0-.367-.1-.372-.271s.129-.281.372-.281Z" transform="translate(-247.295 -148.322)" fill="#fff"/>
    <path id="Path_74" data-name="Path 74" d="M256.713,204.924c-.263,0-.528,0-.791,0-.226-.005-.357-.174-.291-.365a.269.269,0,0,1,.275-.184c.535,0,1.071,0,1.606,0a.275.275,0,1,1-.009.548C257.241,204.928,256.976,204.924,256.713,204.924Z" transform="translate(-247.361 -197.773)" fill="#fff"/>
    <path id="Path_75" data-name="Path 75" d="M256.738,256.03c-.272,0-.543,0-.815,0a.27.27,0,0,1-.273-.366.261.261,0,0,1,.254-.178c.547,0,1.094-.005,1.641,0a.271.271,0,0,1,.279.275.267.267,0,0,1-.285.269C257.273,256.034,257.006,256.03,256.738,256.03Z" transform="translate(-247.378 -247.232)" fill="#fff"/>
    <path id="Path_76" data-name="Path 76" d="M68.754,34.5a.277.277,0,0,1-.273.268.284.284,0,0,1-.271-.273.275.275,0,0,1,.282-.27.268.268,0,0,1,.262.276Z" transform="translate(-66.008 -33.123)" fill="#fff"/>
    <path id="Path_77" data-name="Path 77" d="M102.377,34.5a.268.268,0,0,1,.263-.274.275.275,0,0,1,.281.272.284.284,0,0,1-.272.272A.276.276,0,0,1,102.377,34.5Z" transform="translate(-99.072 -33.123)" fill="#fff"/>
    <path id="Path_78" data-name="Path 78" d="M34.5,34.229a.273.273,0,0,1,.278.262.282.282,0,0,1-.273.282.275.275,0,0,1-.27-.271.268.268,0,0,1,.265-.273Z" transform="translate(-33.133 -33.124)" fill="#fff"/>
    <path id="Path_79" data-name="Path 79" d="M153.317,154.688v-1.015c0-.258.1-.359.359-.355a3.566,3.566,0,0,1,.692.041.766.766,0,0,1,.593.747c.01.37.008.74,0,1.11a.825.825,0,0,1-.848.852c-.149,0-.3,0-.449,0-.247,0-.349-.1-.35-.354C153.316,155.373,153.317,155.03,153.317,154.688Zm.557-.807v1.638h.179c.268,0,.364-.1.365-.361s-.009-.544,0-.815c.019-.472-.153-.486-.5-.471a.286.286,0,0,0-.044.008Z" transform="translate(-148.367 -148.367)" fill="#fff"/>
    <path id="Path_80" data-name="Path 80" d="M86.2,155.617h-.54c-.008.113-.01.222-.027.329a.261.261,0,0,1-.248.213.278.278,0,0,1-.262-.168.5.5,0,0,1-.026-.161c0-.52-.006-1.039,0-1.558a.82.82,0,0,1,.6-.824.81.81,0,0,1,1.041.717c.021.574.009,1.149.006,1.723a.27.27,0,0,1-.27.273.278.278,0,0,1-.272-.272C86.192,155.8,86.2,155.716,86.2,155.617Zm-.545-.568H86.2V154.5a2.075,2.075,0,0,0-.015-.317.266.266,0,0,0-.527.027C85.645,154.486,85.651,154.765,85.651,155.049Z" transform="translate(-82.343 -148.461)" fill="#fff"/>
  </g>
</svg>
