<svg width="15" height="17" viewBox="0 0 15 17" fill="none" xmlns="http://www.w3.org/2000/svg">
<g clip-path="url(#clip0_1261_22301)">
<path d="M9.39669 13.7013V16.2973H9.75326C10.0302 16.2973 10.3076 16.2926 10.5845 16.2973C10.794 16.3025 10.932 16.4493 10.9316 16.6487C10.9311 16.8481 10.7958 16.9879 10.5832 16.9972H4.42277C4.2101 16.9888 4.07208 16.8565 4.06892 16.6543C4.06575 16.4521 4.20829 16.3001 4.4273 16.2969C4.75536 16.2912 5.08343 16.2969 5.41149 16.2969H5.60064V13.7013H5.39249C4.0119 13.7013 2.63222 13.6839 1.25163 13.7088C0.531701 13.7215 -0.00270472 13.1871 1.02985e-05 12.4178C0.0122279 9.18097 0.00453533 5.94413 0.00544033 2.70728C0.00544033 2.08525 0.33984 1.62083 0.883296 1.49229C0.999896 1.46949 1.11856 1.46005 1.23715 1.46415C2.27791 1.46415 3.31867 1.46415 4.35942 1.45946C4.47098 1.45836 4.58095 1.43194 4.68161 1.38205C5.51813 0.954854 6.35225 0.522962 7.18395 0.0863792C7.27982 0.0302358 7.38797 0.000498963 7.49808 6.22482e-06C7.60819 -0.000486514 7.71659 0.0282813 7.81293 0.0835645C8.64915 0.521398 9.48794 0.95501 10.3293 1.3844C10.4245 1.4313 10.5284 1.45642 10.6338 1.45805C11.6746 1.46321 12.7153 1.48057 13.7561 1.4543C14.4747 1.43647 15.0009 1.97923 14.9987 2.73449C14.9878 5.96617 14.9941 9.19785 14.9937 12.4295C14.9937 13.2205 14.5317 13.7003 13.7719 13.7008C12.3861 13.7008 11.0001 13.7008 9.61389 13.7008L9.39669 13.7013ZM11.2945 3.75292C10.9913 3.82188 10.9619 3.85753 10.9619 4.13618C10.9619 4.81545 10.9642 5.4966 10.9619 6.17352C10.9596 6.60791 10.7008 6.93676 10.2931 7.02448C8.47196 7.42051 6.59181 7.42498 4.76894 7.03762C4.27978 6.93488 4.04086 6.62621 4.04041 6.113C4.04041 5.42764 4.03634 4.74274 4.04358 4.05784C4.04358 3.92602 4.00149 3.86176 3.88927 3.80687C3.55623 3.64362 3.22952 3.47146 2.90191 3.29789C2.70869 3.19656 2.60281 3.03378 2.601 2.8072C2.59919 2.58062 2.70236 2.41737 2.89286 2.31042L3.13721 2.17391C3.03404 2.16875 2.98065 2.16406 2.9277 2.16406C2.36751 2.16406 1.80731 2.16406 1.24711 2.16406C0.839856 2.16406 0.684195 2.32637 0.684195 2.74856C0.684195 5.54726 0.684195 8.34627 0.684195 11.1456V11.337H14.3068C14.3109 11.2999 14.3158 11.2774 14.3158 11.2544C14.3158 8.3913 14.3158 5.52834 14.3158 2.66553C14.3158 2.3456 14.1348 2.16828 13.8253 2.1664C13.2199 2.16312 12.6144 2.1664 12.0094 2.1664C11.9655 2.171 11.9219 2.179 11.8791 2.19033C11.9606 2.23255 12.0103 2.25975 12.0601 2.28415C12.2628 2.38548 12.3936 2.54263 12.3986 2.78656C12.4054 2.89586 12.3788 3.0046 12.3225 3.09726C12.2662 3.18993 12.1831 3.26179 12.085 3.30258C11.9818 3.34949 11.971 3.42596 11.9714 3.52681C11.9741 4.29943 11.9714 5.07487 11.9714 5.84514C11.9714 6.16507 11.8547 6.32692 11.6266 6.32504C11.3986 6.32316 11.2931 6.16883 11.2927 5.85593C11.2927 5.40528 11.2927 4.95446 11.2927 4.5035L11.2945 3.75292ZM3.47207 2.79641C3.52637 2.83066 3.55714 2.85318 3.59062 2.87053C4.85763 3.52728 6.12645 4.18184 7.39708 4.83422C7.46133 4.86705 7.5731 4.85204 7.64279 4.81639C8.89773 4.17371 10.1512 3.52666 11.4031 2.87522C11.4406 2.85599 11.4746 2.82831 11.5221 2.79876C11.4827 2.7739 11.4601 2.75701 11.4357 2.74481C10.1632 2.08618 8.88988 1.42943 7.61564 0.77456C7.57602 0.759205 7.53386 0.752168 7.4916 0.753859C7.44934 0.75555 7.40783 0.765936 7.36947 0.784411C6.39162 1.2826 5.41783 1.7883 4.44359 2.29259C4.12593 2.45584 3.81054 2.6205 3.47207 2.79641ZM14.3045 12.065H0.684195V12.3535C0.684195 12.8592 0.819946 12.9986 1.30774 12.9986C5.43698 12.9986 9.56592 12.9986 13.6946 12.9986C13.757 12.9986 13.8195 12.9986 13.8814 12.9986C14.1077 12.985 14.2738 12.8452 14.3005 12.6162C14.3213 12.4366 14.3045 12.255 14.3045 12.065ZM4.73364 4.25299C4.72684 4.2726 4.72199 4.29288 4.71916 4.31351C4.71916 4.92335 4.71916 5.5299 4.71645 6.13834C4.71645 6.28188 4.79111 6.33442 4.91193 6.35178C5.44905 6.42778 5.98346 6.52816 6.52239 6.57742C7.72876 6.68672 8.92654 6.5929 10.1135 6.34803C10.232 6.32363 10.2845 6.25749 10.284 6.12942C10.2809 5.52662 10.284 4.92429 10.2818 4.32195C10.2793 4.29846 10.2749 4.27523 10.2687 4.25252C10.203 4.28442 10.1524 4.30788 10.1021 4.33368C9.3451 4.72491 8.58625 5.11287 7.83238 5.51114C7.73193 5.57018 7.61844 5.60122 7.50296 5.60122C7.38749 5.60122 7.27399 5.57018 7.17354 5.51114C6.41967 5.11146 5.66037 4.72398 4.90333 4.33227C4.84949 4.30694 4.79383 4.28208 4.73364 4.25299ZM6.30111 13.7102V16.2865H8.69576V13.7102H6.30111Z" fill="white"/>
<path d="M8.61304 9.83134H11.938C11.9945 9.82867 12.051 9.83024 12.1073 9.83604C12.1893 9.84714 12.2645 9.88911 12.3186 9.95397C12.3727 10.0188 12.4019 10.102 12.4007 10.1878C12.3995 10.2735 12.3679 10.3558 12.3119 10.419C12.256 10.4821 12.1796 10.5218 12.0973 10.5303C12.0409 10.5347 11.9842 10.5358 11.9276 10.5336H5.27583C5.2194 10.5359 5.16289 10.5346 5.1066 10.5299C5.02437 10.5208 4.94821 10.4808 4.8926 10.4174C4.83698 10.354 4.80579 10.2716 4.80495 10.1858C4.80411 10.1001 4.83369 10.0171 4.88805 9.95251C4.94242 9.88792 5.01778 9.84631 5.09981 9.83557C5.15622 9.83016 5.21291 9.82875 5.2695 9.83134H8.61304Z" fill="white"/>
<path d="M6.84148 8.14305C7.38448 8.14305 7.92748 8.14305 8.47049 8.14305C8.71936 8.14305 8.87186 8.27581 8.87367 8.48925C8.87548 8.7027 8.72208 8.84437 8.47682 8.84437C7.38478 8.84437 6.29305 8.84437 5.20161 8.84437C4.95364 8.84437 4.80567 8.70364 4.80839 8.48691C4.8111 8.27018 4.95726 8.14305 5.21202 8.14305C5.75502 8.14242 6.29817 8.14242 6.84148 8.14305Z" fill="white"/>
<path d="M3.28926 8.14425C3.39695 8.14425 3.50465 8.14049 3.61189 8.14425C3.80963 8.15269 3.94674 8.29295 3.95036 8.48528C3.95237 8.53093 3.94549 8.57654 3.93013 8.61938C3.91478 8.66223 3.89127 8.70143 3.86099 8.73465C3.83072 8.76787 3.7943 8.79444 3.75392 8.81276C3.71353 8.83109 3.67 8.8408 3.62592 8.84132C3.38881 8.85117 3.15079 8.85211 2.91368 8.84132C2.82606 8.83664 2.74369 8.79658 2.68419 8.72973C2.6247 8.66288 2.59281 8.57454 2.59536 8.48363C2.5979 8.39271 2.63467 8.30644 2.6978 8.24327C2.76093 8.1801 2.8454 8.14507 2.93314 8.14565C3.05169 8.14002 3.1707 8.14425 3.28926 8.14425Z" fill="white"/>
<path d="M3.26384 10.5337C3.15071 10.5337 3.03759 10.5394 2.92446 10.5337C2.83749 10.5304 2.75514 10.4923 2.69474 10.4273C2.63434 10.3624 2.60059 10.2756 2.60059 10.1854C2.60059 10.0952 2.63434 10.0085 2.69474 9.94353C2.75514 9.87857 2.83749 9.84042 2.92446 9.83711C3.16157 9.82773 3.39959 9.82773 3.6367 9.83711C3.72288 9.83957 3.8046 9.87734 3.86398 9.94214C3.92335 10.0069 3.95552 10.0935 3.95345 10.1828C3.95423 10.2284 3.94628 10.2737 3.93005 10.316C3.91382 10.3584 3.88964 10.397 3.85891 10.4296C3.82818 10.4622 3.79152 10.4881 3.75105 10.5059C3.71057 10.5237 3.66709 10.533 3.62313 10.5333C3.5014 10.5389 3.3824 10.5337 3.26384 10.5337Z" fill="white"/>
</g>
<defs>
<clipPath id="clip0_1261_22301">
<rect width="15" height="17" fill="white"/>
</clipPath>
</defs>
</svg>
