<svg xmlns="http://www.w3.org/2000/svg" width="12.066" height="12.067" viewBox="0 0 12.066 12.067">
  <g id="payment" transform="translate(0.09 0.1)">
    <g id="Layer_1" data-name="Layer 1" transform="translate(-0.001 0)">
      <path id="Path_38" data-name="Path 38" d="M2.764,165.865c-.069-.06-.142-.117-.207-.182q-1.215-1.222-2.428-2.446c-.173-.175-.174-.279,0-.449.334-.336.671-.67,1-1.008a.748.748,0,0,1,.588-.244.14.14,0,0,0,.108-.055,3.007,3.007,0,0,1,3.654-1.215.545.545,0,0,0,.191.031c.79,0,1.579,0,2.371,0a1.026,1.026,0,0,1,.853.38.487.487,0,0,1,.062-.121q.658-.681,1.321-1.361a.926.926,0,0,1,1.475.212,1.021,1.021,0,0,1-.124,1.053q-.638.769-1.282,1.535c-.22.263-.443.524-.66.79a2,2,0,0,1-1.615.76c-1,.007-2,.01-3,0a1.006,1.006,0,0,0-.765.408.112.112,0,0,0-.01.084.721.721,0,0,1-.219.694c-.351.341-.7.687-1.047,1.03a1.657,1.657,0,0,1-.133.107ZM4,163.594a1.232,1.232,0,0,0,.1-.089,1.317,1.317,0,0,1,1.055-.427c.96.013,1.92.005,2.88,0a1.583,1.583,0,0,0,1.312-.61c.2-.254.414-.5.622-.746l1.312-1.57a.463.463,0,0,0-.679-.629q-.743.761-1.482,1.526a.159.159,0,0,0-.045.1.935.935,0,0,1-1.025,1H6.359a.818.818,0,0,1-.138-.007.228.228,0,0,1,.017-.453,1.156,1.156,0,0,1,.127,0h1.7a1.049,1.049,0,0,0,.15-.008.46.46,0,0,0,.067-.9.883.883,0,0,0-.229-.023c-.817,0-1.634,0-2.451,0a.605.605,0,0,1-.225-.037A2.652,2.652,0,0,0,3.8,160.6a2.287,2.287,0,0,0-1.558,1.1.11.11,0,0,0,.023.165c.162.155.318.314.476.472Zm-1.116,1.713c.294-.307.605-.628.911-.953a.233.233,0,0,0-.037-.348l-1.9-1.905a.237.237,0,0,0-.389,0c-.2.2-.407.411-.613.614-.1.1-.2.189-.312.294Z" transform="translate(0.001 -153.998)" fill="#fff" stroke="#fff" stroke-width="0.2"/>
      <path id="Path_39" data-name="Path 39" d="M143.317,5.095a2.547,2.547,0,1,1,2.549-2.539,2.547,2.547,0,0,1-2.549,2.539Zm0-.463a2.082,2.082,0,1,0-1.476-.613,2.084,2.084,0,0,0,1.476.613Z" transform="translate(-136.411 0)" fill="#fff" stroke="#fff" stroke-width="0.2"/>
      <path id="Path_40" data-name="Path 40" d="M163.831,247.467a.231.231,0,0,1-.229.227.238.238,0,0,1-.232-.237.233.233,0,0,1,.243-.224.226.226,0,0,1,.218.234Z" transform="translate(-158.311 -239.577)" fill="#fff" stroke="#fff" stroke-width="0.2"/>
      <path id="Path_41" data-name="Path 41" d="M199.075,30.426c0-.081,0-.166,0-.251a.235.235,0,0,1,.228-.242.221.221,0,0,1,.23.235c-.015.178.017.31.206.372a.392.392,0,0,1,.135.107.224.224,0,0,1,.015.322.23.23,0,0,1-.313.028,1.574,1.574,0,0,0-.141-.1.226.226,0,0,0-.279.024.212.212,0,0,0-.069.24.233.233,0,0,0,.227.164.7.7,0,0,1,.286,1.327.141.141,0,0,0-.059.093c-.009.068,0,.139,0,.208a.225.225,0,0,1-.232.223.211.211,0,0,1-.225-.226.327.327,0,0,0-.22-.389.63.63,0,0,1-.211-.194.22.22,0,0,1,.024-.312.226.226,0,0,1,.314,0,1.662,1.662,0,0,0,.155.137.242.242,0,0,0,.3.005.212.212,0,0,0,.082-.246.245.245,0,0,0-.248-.171.693.693,0,0,1-.6-1A.8.8,0,0,1,199.075,30.426Z" transform="translate(-192.446 -29.006)" fill="#fff" stroke="#fff" stroke-width="0.2"/>
    </g>
  </g>
</svg>
