  <svg xmlns="http://www.w3.org/2000/svg" width="12" height="12" viewBox="0 0 12 12">
  <g id="information" transform="translate(-2 -2)">
    <path id="Path_1" data-name="Path 1" d="M8,2a6,6,0,1,0,6,6A6,6,0,0,0,8,2ZM8,13a5,5,0,1,1,5-5A5,5,0,0,1,8,13Z" fill="#fff"/>
    <path id="Path_2" data-name="Path 2" d="M8,6.85a.5.5,0,0,0-.5.5v3.4a.5.5,0,0,0,1,0V7.35A.5.5,0,0,0,8,6.85Z" fill="#fff"/>
    <path id="Path_3" data-name="Path 3" d="M8.01,4.8a.535.535,0,0,0-.51.52V5.4a.482.482,0,0,0,.49.48H8a.522.522,0,0,0,.5-.5V5.27A.457.457,0,0,0,8.01,4.8Z" fill="#fff"/>
  </g>
</svg>
