<svg xmlns="http://www.w3.org/2000/svg" width="10.997" height="12.997" viewBox="0 0 10.997 12.997">
  <g id="user" transform="translate(-5 -3)">
    <path id="Path_57" data-name="Path 57" d="M14.368,16.035a.5.5,0,0,0-.7.71A4.5,4.5,0,0,1,15,19.944c0,.61-1.755,1.5-4.5,1.5s-4.5-.89-4.5-1.5A4.5,4.5,0,0,1,7.314,16.76a.5.5,0,0,0-.7-.7A5.459,5.459,0,0,0,5,19.944c0,1.625,2.834,2.5,5.5,2.5s5.5-.875,5.5-2.5a5.469,5.469,0,0,0-1.63-3.909Z" transform="translate(0 -6.446)" fill="#fff"/>
    <path id="Path_58" data-name="Path 58" d="M12.5,10A3.5,3.5,0,1,0,9,6.5,3.5,3.5,0,0,0,12.5,10Zm0-6A2.5,2.5,0,1,1,10,6.5,2.5,2.5,0,0,1,12.5,4Z" transform="translate(-2.001)" fill="#fff"/>
  </g>
</svg>
