<svg xmlns="http://www.w3.org/2000/svg" width="11.522" height="11.617" viewBox="0 0 11.522 11.617">
  <g id="description" transform="translate(-60.247 -58.62)">
    <path id="Path_33" data-name="Path 33" d="M62.138,68.4h.5v.1a1.772,1.772,0,0,0,1.841,1.69h5.394a1.772,1.772,0,0,0,1.842-1.69V62.151a1.773,1.773,0,0,0-1.842-1.69h-.5v-.1a1.772,1.772,0,0,0-1.841-1.69H62.138A1.772,1.772,0,0,0,60.3,60.36v6.346A1.773,1.773,0,0,0,62.138,68.4Zm7.739-7.382a1.191,1.191,0,0,1,1.239,1.137V68.5a1.191,1.191,0,0,1-1.239,1.137H64.484A1.191,1.191,0,0,1,63.245,68.5V62.151a1.191,1.191,0,0,1,1.238-1.137h5.394ZM60.9,60.36a1.191,1.191,0,0,1,1.239-1.137h5.394a1.191,1.191,0,0,1,1.239,1.137v.1H64.484a1.772,1.772,0,0,0-1.841,1.69v5.692h-.5A1.191,1.191,0,0,1,60.9,66.706Z" transform="translate(0 0)" fill="#fff" stroke="#fff" stroke-width="0.1"/>
    <path id="Path_34" data-name="Path 34" d="M188.738,198.035a.24.24,0,0,0,0,.479h4.793a.24.24,0,1,0,0-.479Z" transform="translate(-124.46 -135.298)" fill="#fff" stroke="#fff" stroke-width="0.1"/>
    <path id="Path_35" data-name="Path 35" d="M222.655,254.055a.24.24,0,0,0,.24.24h4.491a.24.24,0,1,0,0-.48h-4.491A.24.24,0,0,0,222.655,254.055Z" transform="translate(-157.62 -189.45)" fill="#fff" stroke="#fff" stroke-width="0.1"/>
    <path id="Path_36" data-name="Path 36" d="M193.186,309.845a.24.24,0,0,0-.24-.24h-4.209a.24.24,0,0,0,0,.48h4.209A.24.24,0,0,0,193.186,309.845Z" transform="translate(-124.46 -243.612)" fill="#fff" stroke="#fff" stroke-width="0.1"/>
    <path id="Path_37" data-name="Path 37" d="M245.584,365.395H241.64a.24.24,0,0,0,0,.479h3.944a.24.24,0,1,0,0-.479Z" transform="translate(-175.818 -297.774)" fill="#fff" stroke="#fff" stroke-width="0.1"/>
  </g>
</svg>
