<svg xmlns="http://www.w3.org/2000/svg" width="12.876" height="8.641" viewBox="0 0 12.876 8.641">
  <g id="testomonial" transform="translate(-3.746 24.009)">
    <path id="path1228" d="M4.443-23.609c-.157,0-.282.2-.283.443L4.146-19.2c0,.245.126.444.283.443l2.677-.03c.234.178-.093,1.326-.947,1.769-.726.376-.033,1.125-.068,1.252a4.423,4.423,0,0,0,1.945-.976,5.2,5.2,0,0,0,1.443-2.221h0A.649.649,0,0,0,9.5-19.2l.015-3.964c0-.245-.126-.443-.283-.443Z" transform="translate(0 0)" fill="none" stroke="#fff" stroke-linecap="round" stroke-linejoin="round" stroke-width="0.8"/>
    <path id="path1232" d="M17.7-23.609c-.157,0-.282.2-.283.443L17.4-19.2c0,.245.126.444.283.443l2.677-.03c.234.178-.093,1.326-.947,1.769-.726.376-.033,1.125-.068,1.252a4.423,4.423,0,0,0,1.945-.976,5.2,5.2,0,0,0,1.443-2.221h0a.649.649,0,0,0,.021-.237l.015-3.964c0-.245-.126-.443-.283-.443Z" transform="translate(-6.546 0)" fill="none" stroke="#fff" stroke-linecap="round" stroke-linejoin="round" stroke-width="0.8"/>
  </g>
</svg>
