<svg xmlns="http://www.w3.org/2000/svg" width="12.135" height="10.847" viewBox="0 0 12.135 10.847">
  <path id="wallet" d="M12.935,13.345h0a1.3,1.3,0,0,1-1.3,1.3H2.3a1.3,1.3,0,0,1-1.3-1.3V5.821A1.038,1.038,0,0,1,2.038,4.783H7.271l2.1-.761a.257.257,0,0,1,.329.153l.221.608h.936A1.038,1.038,0,0,1,11.9,5.821V6.34h0a1.038,1.038,0,0,1,1.038,1.038ZM2.038,5.3h0a.519.519,0,1,0,0,1.038h.943l.009-.005L5.839,5.3Zm7.545.047L9.307,4.59h0l-.532.193h0L7.345,5.3h0L4.478,6.34H9.943Zm1.8.472a.519.519,0,0,0-.519-.519h-.748l.377,1.038h.89ZM11.9,6.859H2.038a1.026,1.026,0,0,1-.519-.144v6.63a.778.778,0,0,0,.778.778h9.341a.778.778,0,0,0,.778-.778V11.529H11.378a1.038,1.038,0,0,1,0-2.076h1.038V7.377A.519.519,0,0,0,11.9,6.859Zm.519,4.151V9.972H11.378a.519.519,0,0,0,0,1.038Zm-1.038-.778H11.9v.519h-.519Z" transform="translate(-0.9 -3.895)" fill="#fff" stroke="#fff" stroke-width="0.2" fill-rule="evenodd"/>
</svg>
